<?xml version="1.0" encoding="UTF-8"?>
<svg id="Layer_1" data-name="Layer 1" xmlns="http://www.w3.org/2000/svg" viewBox="0 0 1024 1024">
  <defs>
    <style>
      .cls-1 {
        stroke-dasharray: 4 4;
      }

      .cls-1, .cls-2, .cls-3 {
        fill: none;
        stroke:rgb(128, 65, 33);
        stroke-linecap: round;
      }

      .cls-1, .cls-3 {
        stroke-width: 1px;
      }

      .cls-2 {
        stroke-width: 2px;
      }
    </style>
  </defs>
  <g id="blender_frame_1" data-name="blender frame 1">
    <g id="blender_object_GPencil" data-name="blender object GPencil">
      <g id="GP_Layer" data-name="GP Layer">
        <path class="cls-3" d="M754.1-12.7c4.1,7.3,9.6,13.2,16,18.4,4,7.2,8.4,14.9,9.3,23.2,2.2,10.9,4.9,22,5.3,33.2,2.7,7.5,3.9,15.3,6.2,22.9,10.6,19.7,25.4,37,39.1,54.5,10.3,10.5,23.8,17.7,34.3,27.9,5.3,8.2,10.3,16.4,15.5,24.6.7,1.1,1.7,1.9,2.9,2.5,15.4,9.2,31.4,17.3,46.4,26.8,2,2.3,1.7,5.7,2.5,8.5,1.2,6,2.5,12,3.6,18-.2,6.9-3.7,14.2-6,20.5-4,6.2-33.1,9.6-24.7,22.4,10.4,11.8,8.3,22.2-.7,33.9-12.3,3.1-25.6,4.4-38.1,7.7-3.9.3-3,5-4.4,7.6-1.2,2.9-3.8,5.3-4,8.5-1.2,9.9-.8,19.5,2.4,29,.2,3.5.3,7.1-.5,10.5-.3,1.9-1.8,4.3-1.2,6.3,4.1,6,8,12.2,13.3,17.5,4.2,5,8.4,10.4,8.8,17.3.4,2.4-1.7,3.8-3,5.5-2.2,2.8-2.7,6.6-3.7,9.9-.6,2.1,1,3.6,1.7,5.6.9,3.4.7,7.2,1.6,10.6,3.1,8,4.8,13,1.8,21.4,2.2,11.3-13.8,19.7-11.6,33,2.3,6.9,10.7,8.7,15.9,12.8,3.9,3.5,6.8,8.1,9.1,12.8.2,3-.1,6.2-.1,9.2-.5,7.1-1.4,14.4-8.2,18.4-1.9,1.6-3.5,3.6-6,4.3-11.2,5.1-23.8,6.7-34.5,12.7-21.5,18-2,18.2,8.7,31.4,6.6,12.8,7.4,10.2,3.2,24.8-4.4,6.7-13,10.1-18.3,16.2-7.8,12.9-12.6,27.9-22.9,39.2-1.6,1.8-1.3,4.2-1.2,6.4,0,6,.1,12.3,0,18.3-8.7,21.3-16.4,43.2-22.6,65.4-1.3,8.3-1.8,16.8-3.2,25-3.8,8.1,6,4,4.8,14.1,0,4.6-2.5,9-2.5,13.6,4.5,13.9,5.5,13.8.7,28.9-10.7,18-30.8,28.9-49.7,37-7.3,2.8-15.4,1.6-22.9,3.5-5.7,2-11.4,4.7-17.4,5.8-6.3,1.2-12.8-.4-19.2.3-6.7,1.2-13.3,3.4-20,4.7-6.7,1.1-13.8,0-20.4,2.1-25.7,8-52.5,11.8-78.6,18.1-27.2,4.2-55.2,4.3-82.7,4.6-22.5-1.1-45.4-3.7-67.6-7.2h-70.7c-8.7-3.3-11.5-14.8-22.4-15.5-10.2-3.3-19.7-8.7-30.3-11-7.7-.6-15.5.2-23.3-.6-8.1-.6-16-3-23.8-4.9-3.9-.6-7.9-3-11.8-1.6-11,4-22.4,7.2-34,8.8-9.1.9-18.5-1-27.1,2.8-13.7,4.1-27.8,9.5-42.4,7.5-7.2-1.9-15-2.6-22.2-.6-10.3,3.7-19.3,10.9-29,15.9-3.1,1.9-6.8.6-10.2.6-6.1-.5-12-1-18.1-1.5-20.7-6.3-39.6-17-57.9-28.1"/>
        <path class="cls-3" d="M-12.2,663.3c5.6-.2,8.9-5.3,13-8.6,3.8-2.7,8.6-4.6,11.1-8.8,1.9-3.4,3.1-7.3,4.9-10.8,4.7-7.8-.7-14.5,5.7-21.6,2.7-3.7,9.7-3.3,12-7.9,10.2-25.4,2.8-53.8,2.2-80.4-.3-30-12.8-76.9,6.2-101.9.7-1.1,1.2-2.4,1.3-3.8-1.5-11.8,15-15.7,18.3-26.2,14.1-24.9,39.2-43.4,48-71.2-3.8-8.1-7.9-16.5-13-23.8-11-5.3-23.9-7.1-35.2-11.7-5.7-2.4-10.2-7.3-16.1-9.2-8-3.4-18.5-4.1-25.3-9.6-22.9-27.6-19.7-23.6-14.5-58.8,4-11.6,8.6-22.9,9.5-35.1,2.7-8,5.6-16.1,6.7-24.5,3.9-14.1,5.5-29.5,14.9-41.4,6.7-10.3,14.2-20.5,20.5-31.1,1.2-4.1.9-8.7,1.4-13-.7-6.2-5.3-11.4-7.6-17.2-2.9-4.2-3.8-11.5-9-13.5-8.3-3.3-30.9-4.6-31.3-15.5C11.2,10.6,11.6,0,17.1-4c3.2-1.5,4.2-5.2,6.8-7.4,5.7-4.6,13.7-1.4,20.5-2"/>
        <path class="cls-2" d="M-7,910.5c14.4,9.1,29.6,16.8,46,21.7,9.8,4.2,21.1,2.5,31.6,3.7,10.2-3.1,18.8-11,28.6-15.5,4.2-2.9,21.1,5.1,29.2,2.9,4.5-1.2,9.2-1.4,13.4-3.3,5.4-2.6,10.5-5.7,16.2-7.4,6.2-2.4,11.8-7,18.4-8.2,9.3-.8,18.9.6,28.2-.5,7.9-2,16-3.7,23.7-6.3,1.6-.6,3.2-.9,4.9-.5,8.6,2,17.3,4.6,26,6.3,9.7,1.2,19.9-1,29.5.9,18.1,5.1,36.8-4.6,54.7-7.1,11.8-2,24.4-.4,36.3-.8,11.6-.6,23.2,0,34.3,3.6,4,1,7.7,2.7,11.5,4.3,10.8,5.1,23.6,6.5,32.4,15.2,2.3,1.8,5.3,1.2,8,1.2,27.1-.7,53.4-7.4,78.6-17.3,23.9-3,46.4,9.6,69.8,12.4,9.8,3.4,18.6-.5,28.1-2.7,5.5,0,11.1,1.1,16.7,1.5,25.3-3.6,50.2-10.9,75.8-13.9,7.9-2.4,14.2-8.6,21.6-12.3,5.8-3.1,12.1-5.6,17.6-9.1,9.5-11.4,17.1-25.7,13.8-40.9-2.5-10.2-7.6-21.7-16.6-27.7-2.6-1-5.4-1.8-8-2.7-2.4-.9-.7-3.1-.5-5-1.7-10.8,4-20.4,6.9-30.4,6.7-14,11.7-28.8,13.4-44.2,3.9-9,8.3-18,11.1-27.4,3.1-2.9,8.2-.6,12-1.7,4.7-2.4,6.8-8.2,10-12.2,5.1-6.5,9.2-13.8,13.1-21.1,2.1-3.6,2.6-8.3,6-11,4-3.6,7.9-7.3,12.1-10.7,3.7-3.3,3.4-8.9,5.2-13.3.3-1.2.4-2.5-.2-3.6-2.5-4.3-4.9-8.7-7.7-12.7-4.8-4.7-10.5-8.8-14.6-14.1-.4-5.4,1.2-11.2,2-16.5.5-1.6,2-2.5,3.4-3.3,4.1-2.2,8-5,12.3-6.9,12.2-5.4,19.8-7.3,28.4-18.8,3.2-6.7,4.9-14.6.1-21-1-2.1-3.5-2.2-5.4-3.7-3.4-2.7-4.4-5.9-5.7-10-1.3-2-1.3-4.3-.3-6.5,2.8-9.7,10.2-17.1,12.5-27,.4-1.3.5-2.7,0-4-3-7.1-3.1-15-6.5-21.9-3.5-7.2-7.7-13.9-11.6-20.8-1-1.9.5-3.8.7-5.7.1-3.1,0-6.4-.6-9.5-1-4.5,1.1-8.3-2.4-12.2-3.6-6.5-9.2-12.1-13.1-18.3,1.8-9,.8-18.6,2.5-27.7,0-5.7-.5-11.3.8-16.9,1.5-7.6,1-15.7,2.7-23.3,1-2.6,4.4-1.8,6.6-2.9,6.7-2.8,13.4-5.4,20.8-4.6,11.1-.9,25.8-6.9,27.1-19.4.4-2,1.3-3.8.1-5.5-3.8-5.2-14.6-12-3.2-15.8,4.5-3,22.7-9.2,23-13.4,5.9-18.6,2.1-24-1.3-42.1-.8-3-4.6-3.6-6.8-5.2-4.3-2.3-8.6-4.9-12.9-7.2-10.5-6.5-22.3-11.8-32.7-18.1-6.8-7.8-13.3-16.3-20.6-23.8-7.5-4.7-16.9-6.5-22.9-13.1-18.5-17-34.4-36.8-49.4-56.9-3.9-5.7-4.9-14-11.1-17.7-1.5-.6-3.3.7-4.6-.6-2.2-2.2-1.6-5.7-1.9-8.5-.2-2.4-1.3-4.7-.4-7,1.7-6.5,3.2-13,4.7-19.5.4-6.9,1.1-14,0-20.9-3.7-12.4-4.7-26.2-12.2-37.1"/>
        <path class="cls-3" d="M763.3-12.7c8.7,6.6,18.5,12.4,26.1,20,2.2,6.4,5,12.9,6.9,19.3.5,9.2,1.6,18.4,3.2,27.5,2.9,18.6,7.7,36.9,12.9,55,8.3,16.7,24.7,28.1,38.1,40.6,6.6,7,15.6,11.1,22.3,17.8,4.8,6.1,10.4,11.7,14.5,18.4,4.5,8.7,6.6,8.5,14.5,13,9.9,5.6,20.2,11.3,30,17,3.2,1.9,8.3,3.3,9.8,6.6.5,3.6.2,7.5.5,11.2-.1,6,3,12.3,1.3,18.2-2.4,6.2-4.1,12.9-6.9,18.9-3.2,3.2-7.5,5.4-11.4,7.7-3.9,2.7-20.9,6.7-17.4,13.3,2.6,4.8,5.9,8.9,8.1,13.6.9,4.6,1,9.4,2,14.1.8,4.5-3.7,8-5.2,11.9-.7,1.1-1.9,1.5-3.1,1.5-12,1.6-24.4,2-35.8,6.7-3.8,5.2-10,18.3-9.5,24.9,1.6,4.8,3.4,9.8,5.2,14.6.3,5.7-1.2,11.2.9,16.7,2.4,4.2,5.5,8.1,7.7,12.6,2.8,3.8,6.2,7.4,8,11.8,2.1,4,1.7,4.8.5,9-.2,3.2-3.1,5.2-4.9,7.5-1.6,2-1.8,5-2.2,7.5-.8,3.3,1.6,5.9,1.8,9,.5,3.8.9,7.5,1,11.3.8,3.2,2.2,6.3,2.7,9.6-.2,5.9-2.3,12.4-6.9,16.4-3.5,4.1-5.4,9.4-9.4,13-.9,2.5-.7,5.7-.7,8.4.3,1.8,2.1,3.1,3.4,4.5,3.2,3.9,8.5,4.4,12.4,7.1,3.5,1.5,6.1,3.8,8.5,6.6,3.3,2.1,6.3,4.6,8.6,7.8,1.7,1.9.7,4.2.5,6.6,1.5,12.6,7,18.5-6.7,26.7-3.5,4.5-9.2,4.9-14.1,7.2-7.5,4.3-15.2,7.7-23.8,8.8-2.2.4-4.2,1.1-5.7,2.8-2,3.1-12.9,9.9-8.8,13.6,9.9,8,17.4,10.8,21,24.6-.9,3.6-2.6,7.1-3.2,11-.8,5.4-6.7,7.4-10.2,10.9-3.2,2.7-6.2,5.5-9.4,8.3-15.4,17.6-12.9,35.5-12.8,57,.5,6.9-.8,13.8-3.1,20.3-5.6,16.3-10.4,32.9-17.1,48.8-2.1,11.8-6.9,22.5-13.4,32.6-2.7,5.5-3.3,11.7-5.1,17.6-1.3,7.1,7,15.5,6.5,22.6-1.9,6.8-2.4,14.5-7.1,20.2-4.4,5.4-9,10.3-13.8,15.3-10.4,7.5-21.6,13.5-33.8,17.3-5.4,2.1-11.1,2.4-16.8,3-8.8.7-17.2,3.9-25.9,5.4-23.5.2-44.9,9.9-67.7,13.9-21.4,4.7-42.5,11.6-64.1,15.7-13.4,2.6-26.8,7.9-40.6,6.9-7.2-.4-14.2-2.9-21.4-2.9-18.3,0-36.6,5-54.9,3.1-27-6.5-55.6-1.8-83-4.4-3-.3-5.8-1.6-8.4-3.1-10.7-7.1-21.9-13.7-31.9-21.9-5.9-3-13.1-1.4-19.5-1.6-5.6-.3-10.5-3.7-16-4.3-14.6-.6-29.6-1.5-43.8-5.1-12.5-3.9-25.1-1.8-37.5,1.4-14,2.9-28.1,5.6-42.4,6.4-4.1.5-8,3.1-12.2,3.1-2.6,0-5.2-.7-7.9-.5-15,3.8-29.9-4.3-44.8,1-10.6,4.5-20.1,11.7-31,15.4-28.6,6.4-49.5-9.6-73.2-23.1"/>
        <path class="cls-3" d="M-10.9,108.9c9.9-6.3,21.1-10.4,31.7-15.1,4.9-2,10.8-4.2,12.8-9.6.5-5.5,6.1-14.1,1.6-18.4-10.9-6.6-26.7-8.8-34.1-19.6-1.2-2.1-.3-4.5.5-6.6C7.1,28.1-7,21-13.3,13.2"/>
        <path class="cls-2" d="M542,574c4.6-4.3,5.5-12.1,11.5-15.1,6.1-3.4,13.1-4.4,20-4.1,6.9.7,13.5,7.6,14.6,14.3-.5,3.6-2,7.7-5.5,9.4-5.2,3.1-7.7,9.4-12.7,12.5-3.9.8-8,3.5-12,2-6.1-2.3-10.8-7.2-13.7-13-1.3-1.8-5.6-4.1-2.3-6h.1Z"/>
        <path class="cls-2" d="M468.5,599.6c1.5-7.8-1.9-7.3-3.7-13.6-1-2,0-3.7,1.4-5.4,3.9-7.2,12.9-8.2,19.9-10.8,13-3.3,24.8,7.3,37.7,5.5,4.4,1.2-1,5.9-1.6,8.4-1.3,3.5-.9,7.4-2.4,10.7-5.4,8.9-14.8,14.2-22.2,21.2-3.9,3.5-9.8,3.1-14.5,4.6-1.3.3-2.7.3-4-.1-10.2-3.1-12.3-10.7-10.6-20.5h0Z"/>
        <path class="cls-3" d="M311.3,383.4c1.8-5.4,4.8-12.2,1-17.4-3.4-5.9-7.1-6-13.3-6-5.2.5-16.1-3-19,1.9-1.5,3.4-4.4,6.5-4.6,10.3.7,5.6-.4,11.7,2.9,16.4,5.2,8.4,3.2,7.5,13.1,8.5,2.7,0,5.9,1.2,8.1-.7,4.1-4,8.3-8.3,11.7-12.9l.1-.1Z"/>
        <path class="cls-3" d="M608.6,427.7c-1.2-.1-3.2,3.3-3,4.4.9,0,1.6,1,2.4,1.2,1.5-.3,4-.3,5-1.2,0-.6-.4-1.8-.8-2.7-.1-2.1-2.2-1.3-3.6-1.6v-.1Z"/>
        <path class="cls-3" d="M615.3,521.8c.9,3.4,2.8,6.5,4.2,9.7,1.1,4.7,3.8,9.8,8.9,10.8,3.9.4,7.5-1.9,10.9-3.5,2.8-1.8,6.7-2.1,8.9-4.8,2.2-2.8,4.9-6.5,3.8-10.2-.5-1.4-2.6-1.5-3.1-3-.9-4.3-2.6-8.6-6.3-11.2-9-7.9-29.1-.6-27.4,12.2h.1Z"/>
        <path class="cls-3" d="M564.4,553.3c10.2-3.3,22.6-3,31.1,4.2,1.9,1.7,4.2,2.4,3.1,5.4-.5,2.3.2,3.7-1.4,5.3-3.2,3.7-6.6,7.1-9.8,10.8-5.2,5.4-8.8,12.4-14,17.7-5.5,3-17,10.4-23.1,7.6-2.8-1.8-5.7-3.6-8.7-5-11.4-3.5-18.3,8.2-27.8,11.7-6.4,3.4-11.9,8.6-18.7,11.6-4.2,1.9-8.8,3.2-13.1,4.6-28.5.3-14.8-20.2-22.7-28.7-9.1-7.8-12.9-13.3-.7-20.9,7.5-4.5,16-8.5,24.8-9.6,18.2.3,36.9,5.2,54.2-2.8,9.1-3.5,17.4-9,26.7-11.8l.1-.1Z"/>
        <path class="cls-3" d="M329,576.6c-.2-.9,1-1.8,1-2.8,0-1.1-.8-2.2-1.4-3.3-2.1-3.6-1.5-7.4-3.7-10.9-1.4-3.1-1.1-5.8-1.7-9.1-1.7-3.9-3.1-8.1-3.1-12.5,0-1.5.5-3.5-1.1-4.3-9.1-2.3-3.2-5.4-4-11.4-1.1-4.5,1.2-1.9,2.2.3,3,3.4,8,6.2,12.8,5.8,7-.7,14.1-.5,21,.6,2.7.2,2.4,2.7,1.9,4.7-1.3,3.1-3.5,3.6-2.3,7.7,1.7,3,4,6.8,1.8,9.9-1.2,1.6-4,2-4.1,4.3.3,3.7-2.6,6.7-4.6,9.6-1,.9-2.2,1-2.6,2.2-1.8,3.9-7.3,14.1-12.1,9.2h0Z"/>
        <path class="cls-3" d="M251.9,372.7c.8-6.3,2.6-12.4,5.5-18.1,1.2-2.9,1.6-6.2,4.2-8.4,5.2-4.3,11.9-6.8,18.2-8.8,11.9-2.6,24.3-2.5,36.5-2.8,13.1-1.3,31.3,3.6,31.2,19.5,0,2.5.5,4.8.9,7.2,1.9,17.4-11.6,28.5-17.8,43.2-4.9,13.5-14.4,28.9-29.3,32.4-12.3,2.3-15.2,2.8-26.9-2.4-16.8-13.8-23.6-40.8-22.4-61.9l-.1.1Z"/>
        <path class="cls-3" d="M626.8,397.8c-.3,4.5-.6,9.1-.2,13.6,2.3,5.3,4.8,11.2,3.5,17-.6,2.7-.5,5.5-3.2,6.7-5,2.9-10.6,4.6-16.2,6-3.6.7-7.1-.8-10.7-1.3-3.1-.6-7.6-4.9-8.1-8.1-.6-5.8-.6-11.7.6-17.5,2.8-12.3-3.6-29.9,9.9-37.3,7-4.2,17.3-3.4,22.5,3.4,3.9,5.1,2.7,11.5,2,17.4l-.1.1Z"/>
        <path class="cls-3" d="M474.4,572.3c-10,2.2-33.2,9.8-23.2,23.3,3,5,17,5.8,12.1,13.6-3.1,12.2,3.1,20.4,16,19.4,9.1-1.3,17.8-4.6,25.9-9.1,3.2-2.1,6.7-1.6,10.1-2.9,9.3-4.7,20.7-8.6,29.7-1.3,3.6,2.4,7.5,4.2,11.3,6.2,1.5.8,2.6,2.2,4.4,2,2-.5,4.1.9,5.9.6,7.7-2.6,10.4-10.6,14.6-16.8,2.8-4,5.5-8.1,8.1-12.2,9.6-12.2,20.6-23.4,32.3-33.5,6.8-5.1,16-4.6,23.1-8.6,7.2-5.8,14.3-13,16.5-22.2,5.3-14.1-2.2-33.8-16.8-38.7-8.2-1.8-17,3.4-22.3,9.4-6,5.6-12.8,11.6-15.4,19.6-1.4,4.7-4,8.9-5.3,13.6-1.5,4.1-6.3,7-10.3,8.5-6.1,1.6-12.2,3.2-18.2,4.8-11.7,4.1-21.9,11.5-33.6,15.7-10.8,4.2-22.7,2.7-33.6,6.3-10.8,5.5-19.9,3.4-31.2,2.4l-.1-.1Z"/>
        <path class="cls-3" d="M632.4,360.4c-7.4-16.5-13-13.7-27.9-18-15.2-1.7-13,30.2-12.7,40-1.5,4.9-.5,9.8-.4,14.8-1.6,8.1-3,16.1-3.1,24.4.5,2.6,2.9,5.1,4.4,7.4,11,8.3,25.5,8.5,38.7,7.3,7.4-1.8,14.5-5.4,22.3-4.1,4.8,1.7,5.6-3,9.1-5,1.4-.8,3.6-1.6,3.4-3.6-.2-2.6-2.7-7.4-4.8-9.4-2.8-2.8-7.5.5-10.8-.8-2.9-2.4-3.1-7.1-6.1-9.4-1.5-1-3.4-1.9-3.7-3.9-1.1-6.3-1-13-2.4-19.3-2.8-6.6-3.3-13.9-6-20.5v.1Z"/>
        <path class="cls-3" d="M564.5,247.9c5.9-5.9,11.3-13.5,19-16.9,5.3-.8,9.9,3.8,14.5,5.9,2,1,4.1,2.8,5,4.7,0,3.3-2.2,7.1-2.9,10.2-.8,3.7-3.7,5.8-6.7,8-4.5,3.7-4.2,3.9-10,2.5-4.6-1.7-15.8,1.1-18.3-1.5-2.3-3.9-3.3-8.9-.8-13l.2.1Z"/>
        <path class="cls-3" d="M276.4,515.3c.5-7.8,1.6-11-1.8-18.7-3.9-3.6-11.1-4.2-15-8.2-8.4-9.7-10.7-22.8-17.2-33.5,0-3.4,2.3-6.8,1.6-10.3-.4-2.3-1.4-4.7-.4-6.9,1.9-5,6.4-10.1,5.6-15.7-2.5-6.9-1.9-14.1-1.3-21.2-.6-18.9-11-49.2-1.1-65.2,20.8-25.2,57.7-9.6,85.8-12,15.5-1.3,31.1-6.3,46.4-1.7,4.6-.2,5.3,2.7,6.2,6.5,2.4,6.1,3.5,12.6,5.9,18.7,4.6,7.8,16.3,6.2,24,4.8,1.9-.1,3.8-.6,5.1-2,2.4-2.6,5.6-4.3,7.8-7.1,3.2-5.3,8.4-8.7,13.5-11.9,7.6-3.4,14.9-9.6,23.8-7.6,3,1.2,6.8,2.8,8.8,5.4,3,5.6,5.2,11.6,6,17.9,2.9,11.7-5.1,21.7-9.7,31.7-2.4,4.7-7.5,7.6-9.5,12.6-1.5,6.2-4.5,10.7-10.2,13.7-5.6,5.4-13,8.7-17.3,15.5-2.3,3-6.3,3.9-9.5,5.7-.8.4-1.8.7-2.7.3-18.3-15.7-31.1,7.4-28.9,24.7.3,8.6,5.5,16.8,3.2,25.5-5,15.3-13,32.8-5.1,48.6,2.6,3.4,4,9.7,9,10.8,10.4,1.9,16,9.4,19.2,18.9,4.5,8.5,3.5,19.7-.2,28.2-5.2,5.5-9,8.6-16.7,9.7-4.4.6-9.4-1.8-13.5,1-2.9,1.9-7,2.1-9.5,4.5-5.3,8.3-9.7,17.7-20.6,19.3-2.6.8-5.1,1.4-7.5-.4-2.5-1.3-5.6-1.3-7.7-3.2-2-1.9-3.4-4.6-6.1-5.7-8.3-4.3-16.2-9.2-23.1-15.5-9.9-9.1-14.3-22.1-20-33.9-7.5-13.5-16.1-28-17.1-43.6l-.2.3Z"/>
        <path class="cls-3" d="M681,475.4c4.5-1.6,5.1-7.8,8.9-10.5,10.2-6.8,7.4-15.3,7.3-25.8-.2-4.7,4.8-7.3,7.2-10.8,1-1.4,2.6-2.4,4.4-2.2,8.6,0,17.4.2,26.1-.4,4.7.6,11.1-1.5,15,1.3,2.9,4.4,6,8.5,9,12.8,2.6,5.2,4.5,10.8,8,15.4,9.3,11.6,12.1,26.7,16.8,40.5,1.1,3.7,0,7.6-.2,11.4-.7,6.4.4,12.8.3,19.3-1.1,7.8-2.8,15.8-4.5,23.4-.6,2.5-2.3,5.3-5.2,4.9-12-.8-24.5,4.9-35.9-.3-7.9-2.6-16.5-2.6-24.6-4.2-3.5-.6-5.2-4.7-8.6-5.5-2.9-.2-5.8.4-8.7.4-2.7,0-4.7-1.1-7.1-.8-5.6,1.8-11.8,1.9-17.5,2.9-14.1,5.4-26.5,14.2-40.5,19.8-13.2,5.2-21.3,17.2-32.9,25-7.2,5-12,12.7-18.8,18.1-2.7,1.9-4.4,4.7-6.7,6.9-15.7,12.7-34.4-2.9-51.7-1.1-12.6.4-22.5,9.3-34.4,11.5-7,.9-15.3,3.1-21.6-1-6-4.2-7.2-12.1-11.7-17.6-3.2-3.8-6-8.1-8.6-12.3-1.2-2.1-1.9-4.8,0-6.7,7.4-10.8,16-11.9,27.9-14.9,15.1-2.8,28.7-10.1,43.5-13.9,14.7-1.5,27.5-9.1,41.3-13.6,10.9-3.8,21.1-9.8,27.7-19.4,6.1-10.1,13.3-19.7,19.6-29.6,1.8-4.1,2.5-10,7.2-11.8,7.1-4,15.6-3.2,23.2-5.4,5.5-1.2,10.9-3.1,16.5-3.8,3.6-.9,7.3,0,10.8-1.5,2.3-.4,4.7.8,7.2.7,3.8,0,7.4-1.5,11.2-1.3l.1.1Z"/>
        <path class="cls-3" d="M710.7,484.8c3.1,2.8,8.3,3.9,10.7,7.3,1.6,3.7-5,8.7-8.4,7.3-4.6-3.8-18.6-.3-16-9.4.9-3.1.5-6.4,2.7-9,3.4-4.4,7.8,1.7,11,3.8h0Z"/>
        <path class="cls-3" d="M638.7,593.5c-13.5.4-26.8,4.5-38.8,10.4-19.4,17.8-34.8,30.5-62.5,21.3-11.9-1-17.7.1-28.4,5.4-8.9,4.6-18,8.6-27.2,12.7-6.1,4.2-12.8,9.6-14.5,17.2,0,7,2,14.1,1.3,21.2-1.9,6.3,1.2,16.9-7.5,18.2-4.9,2-10.4.5-14.7-2-4.1-4.3-5.2-10.7-8.3-15.7-5.5-14.5,4.3-18.4-11.7-27.8-12.3-9.9-10-15.7-1.7-27.8,1.4-1.7,1-3.7.7-5.7-.2-1.5.5-2.9-.2-3.9-5.8-3-12-6-18.5-7.3-10.2.1-18.4,8.8-24,16.5-24.9,18.9-45.5,8-65.5-11.4-18.7-14.8-27.4-37.3-38-58-6.6-9.3-13.6-18.6-21-27.4-14.7-14.1-30.9-28.8-36.7-48.9-6.8-12.4-9.1-26.7-10-40.6,2.3-6.7,6.4-12.8,9.5-19.2,5.9-6,12.3-11.9,18.6-17.5,2.2-1.8,3.1-4.6,4.1-7.1,2.4-5.6,5.5-11.8,2.6-17.8-4-16.7-11.6-33.2-7.4-50.7,1.4-7.3,2.1-16.6,9.5-20.3,76-20.6,64.3,38.2,104.2,10.7,13.7-8.9,26.9-22.2,44.3-22.1,40.4,10.8,36.6-24.7,58.1-21.4,9.2-.5,7.7,7.8,10.4,14.1,1.5,3.7-3.8,5.5-6.1,7.7-3.4,2-11.4,2.1-10.9,7.4,1,4.2-.2,7.9,5.6,7.6,2.7.5,4.9-2.3,7.2-2.3,3.5,1.3,7.6,3.1,10.2,5.5,9.4,12.3,13.1,11,15.8,27.9,2.5,12.5,2.1,25.4-2,37.5-1.7,4.6-1.1,9.1.4,13.7,2.2,3.8,7.9,4.1,11.5,6.3,6.5,1.9,14,3,20.8,1.6,5-2.7,11-3.8,15.4-7.4,10.4-14.5,10.8-26.1,10.6-43.3.2-30.2,0-60.4-2-90.6-1-33.2-1.3-54.3,39.1-54.1,14.1.4,31-2.3,42.4,7.6,4.3,3.6,8.4,7.2,12.8,10.7,3.8,3,5,3.5,5.8,6.8,2.5,13.7,2.7,17.1-.9,30.4-.9,12.1-4.1,23.8-5.5,35.9-6,24.8-9.1,34,11.7,51.7,3.7,5.8,8.4,10.2,13.9,14.4,19.7,3.9,40.5,3.5,60.6,4.3,10.5,0,21.4,1.3,31.4-2.5,6.7-2.1,18.3-6.4,21.7,2.3,1.9,5.2,6.4,10.3,6.3,16-3.6,14.7-5.4,29.8-3.4,44.9.3,5.2,7.9,7.9,12,10.2,17,11.1,35.4,26.3,35.2,48.4,7.8,40.3,11.3,35-.5,77.5-1.3,7.4-4.5,14.4-6.1,21.6.9,9.3,2.6,18,1.3,27.3,1.8,14.3-11.4,26.5-24.2,30.3-6.7,3.3-12.5,8.4-19.5,11.1-7.1,2.9-13.1,7.8-19.5,11.8-3.3,1.8-7.1,5-11,3.4-7.8-3.3-13.8-9.3-16.5-17.3-.9-2.2-3.2-3-5-4.4-2.3-1.8-4.2-4-6.4-5.9-4.5-4-9.6-7.3-12.3-12.9-2.6-6.8-5.5-8.7-10.9-3.1-.8,1.5-1.9,3.1-3.9,2.9-6.5.2-9.3-5.4-12.7-10-1.4-2.5-1.4-5.6-3.4-7.8-9.4-9.6-21.7-17.6-35.6-17.9l-.1-.3Z"/>
        <path class="cls-3" d="M498.8,414c12.9,0,24.3,6.4,34.8,13.2,1.7,1.3,3,3.1,4.7,4.4,2.4,2,5.8,3.1,7.5,5.8,3,6.9,4.7,14.8,7.7,22.1,4.1,19.6,3,40.8-2.9,60-5,11.9-13.8,22-24.8,28.7-6,2.8-12.5,4.2-18.9,5.4-8.2,1.9-16.3,3.7-24.7,4.2-3.7.6-7.5,2.1-11.1.2-2.1-.9-3.8-3.2-5.8-4.7-6.2-3.1-4.3-4.1-5.4-10.1-1.6-8.6-6.2-14.7-12.1-20.9-3-4.2-5.1-8.9-7.9-13.3-2.8-4.9-3-10.8-4.2-16.2-1.4-4.7-5.2-10.1-2-14.8,9-13.1,8.5-29.4,14.1-43.9.6-2.1,2-3.6,4.1-4.4,10.6-4.4,20.9-9.8,31.4-14.3,5.1-.9,10.4-1.3,15.5-1.3v-.1Z"/>
        <path class="cls-3" d="M375.3,246.7c-8.3-4.6-22.1-18.5-21.7-28.5-2.4-11.8,9.7-21.9,20.8-18,11.2-1.3,25.8-17.1,37.2-10.5,1.8.9,4,.9,5.8,1.8,1.5.7,2.4,2.6,3.9,3.2,2.6,1.1,5.9.6,8.4,1.8,10.7,7.4,12.9,16.3,11,28.6-2.1,5.6-6,10.9-6.1,17.2.1,4.4-5,5.7-7.2,8.9-5.9,11.6-21.4,7.7-31.8,6-7.2-2.5-13.9-6.3-20.3-10.4v-.1Z"/>
        <path class="cls-3" d="M186.7,688.4c3.8,14.1,3.4,28.8,4.3,43.2.9,3.8-2.1,5.9-4,8.7-1.1,1.8-3,1.8-4.7,1.5-3.8-.7-6.4-4-10.3-4.8-2.7-.6-2.9-3.4-3.5-5.6-.4-2.3-2.1-3.7-2.9-5.7-1-3.1-1.2-6.4-3.4-8.9-2.4-4.6-5.3-9.1-6.9-14.2-1.5-2.6-3.7-4.9-4.6-7.8-1.6-4-6.2-5.7-8.9-8.7-1.3-1.5.5-3.4-2.2-4.1-2.2-1-5.4-.9-6.8-3.1-3.6-7-3.2-14.4-1.9-22-1-5.7,2.7-10.2,4.6-15.2.4-1.6.4-2.7,1.8-3.7,1.9-1.7,3.4-2.2,5.6-.7,7.6,4.1,15.7,8,23.5,12,7.9,3.1,10,12,12.1,19.3,4,6,6.1,12.8,8.1,19.7l.1.1Z"/>
        <path class="cls-2" d="M771.4,200.1c-3.1-3.7-6.9-6.9-11.7-8.4-11.9-5.5-23.8-12.5-35.6-18.3-20.6-5.6-42.5-7.9-60.7-20-6-1.9-12.1,3.6-17.5,5.7-9.2,3.8-18.6,7.1-26.9,12.7-6,2.2-12.5,3.4-17.9,7-6.6,4-10,11.6-16.3,15.7-12.2,3-25.3-1.3-37.6,1.7-19.7,5-13.8,37.1-13.9,52.6-1.3,40-1,80-2.1,120,1.7,18.1-19.9,19.3-32.9,15.8-7.5-4-1.8-19.8-3.3-27.3.2-6.2,4-12,3.1-18.2-11.9-26.3-3.3-55.5-12.3-82.7-6.2-60.1,5.9-49.3-54.9-64.4-10.2-16.6,2.8-17-24.8-18.4-10.3-.5-20.5,1.5-30,5.3-9.8,4.8-9.8-15.9-28.8.6-13.4,3-21,27.3-17.5,39.5.7,9.3,1.9,18.6,4.1,27.7,1.2,4.5,7.8,2.7,11.1,1.7,12.1,1.7,26.4,2.6,35.8,11.2,12.7,18.1,1.3,31-12.8,42.8-4.6,5.1-9.5,10.2-14.9,14.5-5.3,2.6-10.7,5.2-15.4,8.9-1.2,1-2.7.2-3.5-.9-9.2-8.8-17.3-19.6-28.9-25.4-31.3-10.2-72-3.4-71.6,36.9-2.8,16.6,10.7,34.8.8,50-11.6,20-30.8,16.1-43.1,38.1-9.2,20.6-4.3,45.6.8,66.8.5,11.3,4.9,21.5,10.4,31.3,13.4,25.1,41.5,33.7,63.9,48.1,6.1,3,5.7,9.8,9.9,14,3.4,2.9,1.5,8,2.9,11.5,1.5,3.9,2.2,8,3.1,12.2,6.3,12.9,13.2,25.9,21.8,37.4,1.7,4.3,4.5,7.6,7.9,10.7,2.2,3.9,4.7,6.8,8.7,8.9,15.6,14.1,38.1,17.2,57.1,25.2,10.7,2.5,18.3,10.9,27.2,16.7,12,7.4,22.7,18,36.4,21.7,18.3,4.3,36.9-3.7,55.3-4.2,12.3-1.7,23.3-9.4,35.9-9.8,14.5,1.5,26.4,7.8,36.6-7.2,8.1-5.8,16.5-10.9,21.6-19.8,2-2.9,5.5-5.9,3.8-9.7-1.3-16.4-17.5-10.5-26.8-17.6-2.4-4.6,26.2-16.4,30.7-20.4,8.7-4.7,18.4-8.4,28-10.5,5.2-2.8,13.4-5.6,18-.8,7.5,9.1,15.8,17.4,24.5,25.4,10.2,16,24.7,29.2,39.2,41.4,11.9,10.7,29.6,6.8,41.3-2.2,9.3-11.1,20-20.3,33.5-25.8,12-8,27.9-7.7,39-16.8,7.1-10.3,11.3-22.7,8.4-35.2-3.4-5.2-7.8-10-9.7-16.2-.7-4.8-4.8-9.8-2.9-14.6,16.1-31.5,18.4-47,10.8-81.6-2.1-9.9,1.7-20.2-2.2-29.7-5.1-16.5-22.8-32.7-16.8-50.7,2.7-2.6,8.4-2.7,8.1-7.7.2-3.4-3.3-5.6-3.6-8.8.2-4.6-3.7-8.1-4.8-12.3.3-6.5.7-13,.4-19.5.5-19.1-5.7-37.3-9.6-55.6,2.5-22.5,4.9-45.9-1.3-68-3.3-11.5-9.5-21.5-16.2-31.2-3.7-6.6-6.1-13.9-11.4-19.5l.1-.3Z"/>
        <path class="cls-3" d="M701.7,284.6c-1.2-6.7-9.6-5.2-14.1-8.8-9.6-8.2-12-1.9-15.8,7.2-2.8,6.9,2.8,13.3,4.9,19.7,1.1,3.4,1,5.5,5.4,4.9,6.1-.7,12.7-.1,18.5-2.6,2.4-1,2.8-3.7,2.6-6-.7-5-.2-9.8-1.5-14.5v.1Z"/>
        <path class="cls-3" d="M512,431.9c3.6,2.8,6.6,6.7,11,8.4,6.6,3.1,14,5.7,17.8,12.5,7.1,13.1,10.3,28.9,9.6,43.7-1.3,15-11.3,27.1-17.2,40.6-1.3,2.3-2,5.5-5.1,6-5.4,1.1-10.6,2.7-15.9,3.3-3.8-.2-7.5-2-11.4-1.8-6,.5-12,0-17.7,1.7-2.2.8-4.7,1.2-7,.7-3.8-.2-6.8-2.1-10-4.6-2.3-2.5-1.9-6.6-3.3-9.3-2.5-5-7.6-8.5-9.5-13.8-1.9-5.1-3.5-10.4-5.3-15.5-1.1-4.4-3.5-8.4-3.7-12.9.6-6.3-.8-13.2.6-19.3,1.9-5.1,3-10.6,4.8-15.8,1.8-3.7,4.4-7.5,6.4-11.1,1.7-1.8,4.9-1.4,7.2-1.9,16.8-.9,31.3-17.5,48.6-11l.1.1Z"/>
        <path class="cls-3" d="M516.4,660c-.2-3.8-5.7-3.8-8.6-4.3-.5,0-1,0-1.1.5-1.5,4.2-.2,7.9,4.4,8.7,1.6.2,2.1-2,3-2.9.6-.8,1.7-1.2,2.2-2h.1Z"/>
        <path class="cls-2" d="M230.8,706.1c5.3,18.3,7.9,40.2-4,56.5-19.1,20.5-42.5,16.2-61.7-1.6-5.8-5.4-10.2-11.8-13.6-18.8-3.2-3.8-6.6-7.4-9.6-11.3-16.6-29.7-26.2-63.3-29.8-97.1-.4-3.3,2-5.4,5-6,10.3-3.2,19-10.2,28.9-14.1,8,2.6,16.2,6.4,24.1,9.5,4.6,2.6,8.2,6.4,11.9,10.1,23.4,18.7,40.8,43.8,48.8,72.8h0Z"/>
        <path class="cls-2" d="M456.9,862.8c5.1,1.2,10.9.8,16.2,1.2,5.7.2,8.3-5.3,11.5-9.1,8.8-8.2,14.2-12.4,14.4-25.4,1-9.8,5.9-7.7,12.1-12,5.8-5.8-3.5-14.8-2.8-21.4.4-9,1.5-18.5-.9-27.3,0-3.2.7-6.5-2.1-8.7-16-13.1-38.2-19.9-58.3-12.7-11.4,6.8-25.9,11.8-27.8,26.9-.5,4.3-1.2,15.7,2.6,18.2,5,.2,8.7.4,11.6,5.3,2.3,6.6,4.4,13.6,6,20.4,1.1,5.4.6,11.3,3.4,16.1,2.9,10.1,8.9,19.4,14.1,28.5h0Z"/>
        <path class="cls-3" d="M484.8,447.4c-3.2,1.3-6.3,3.4-9.7,4.2-3.7.7-7.8.2-11.2,1.8-3.9,1.9-1.2,7.3-2.3,10.4-4.1,6.5-8.4,12.7-12.8,19.1-1.4,5-1,10.6,1.2,15.4,2.2,8.2,6.5,15.5,10.1,23.2,2,6.1,2.6,12.4,4.5,18.5,1.3,4.6,7.5,4.2,11.1,6,9.7,2.5,19.6-3.8,29.5-.9,8.2,3.3,16.7-.4,24-4.2,1.5-.6,2.5-1.8,3.1-3.3,2.9-6.1,6.3-12.1,9-18.3,3-8.6,6-17.5,8.8-26-1.1-6.2-3.4-12.3-4.4-18.6-4.1-20.6-3.4-20.3-22.6-28.2-5.7-1.5-6.5-10.4-12.6-9.7-3,.6-5.3,3.1-7.9,4.7-5.5,2.9-12,3.3-17.7,5.9h-.1Z"/>
        <path class="cls-3" d="M347.3,317.7c12.9-7.8,25.4-22.7,23.9-38.4-2-5-9.5-5-10.6-10.9-4-11.2-19.5,1.4-29.9-13.9-4.2-9.5-3.4-20.3-2.5-30.4-2.3-9.5-4-24.1,2.2-32.4,4.8-8.1,11.9-14.6,17.8-21.8,2.7-3.5,5.4-7.6,9.8-9,13.9.5,11.1.6,19.8-9.6,9.6-10.6,25.4-7.6,38.3-9.4,5.9.5,11.6,2.8,17.6,2.4,10.6-1.8,24-1.8,29.8,9,9.7,13.2,26.9,18.8,42.5,20.8,6,3.6,9.3,3.8,16.1,2.1,17,1.5,34.2-1.8,50.3-7.1,14.3-6.7,29.4-11.6,44.2-17.1,12.1-7.7,24.8-15.7,39.5-16.1,5.7-1.6,11-7.5,17.1-6.9,2.8,3,1,8.3,1.8,12,1.4,12.3,4.2,11.2,13.6,17.2,8.2,5.4,17.9,6.5,27.1,9.2,16.9,2.7,35.7,2.7,48.6,15.5,2.8,4.4,7.8,3.1,12,4.9,5.9,1.7,6,9.3,9,13.7,5.9,17.3,6.9,21.4,21.5,33.2,13.3,16.2,9.6,23.8,10.3,43.1.3,9.2,1.1,18.6.7,27.7-.9,7.3-2.8,14.5-3,21.9,1.1,17.4-.4,34.6-1.8,51.9-2,22.5,3.3,15.4,13.1,32.8,5.5,10.2,3.3,22.7,8.2,33.2,4,18.3,15.3,37.9,8,56.6-1.2,3.5-1,7.9-3.2,10.9-1.4,1.6-2.7,3.4-2.5,5.6-.5,10.7,2.4,22.3-.4,32.6-2.4,7-8.6,11.4-11.7,17.8-1.4,4.4-2.4,9-4.4,13.2-1,2-2.3,4.1-1.5,6.4,1.9,15.5,6.5,14.5,16.8,24.3,4.7,8,3.8,18.6,1.6,27.4-5.7,12.3-18.2,20.1-29.9,26.2-10.3,7.3-22.3,12.8-35.1,10.3-13.4,2.5-18.1,17.5-28,25.2-5.4,4.1-1.5,5.2-3.2,9.5-3,5.3-4.4,11.3-7.1,16.8-1,2.5-3.5,4-5.2,6.1-1,1.3-2,2.7-3.6,3.4-5.8,2.6-12.9,2.7-18.6,4.8-2.5,2.1.9,5.9-.1,8.1-3.2,4-10.3,1.8-14,5.3-4.2,6.9-19.9,7.9-22.6-.4-.9-6.1-8-4.5-12.5-4.5-4.4-.5-8.3.8-12,3.6-2.5,1.8-.7,6.7-3.5,8.2-2.5,1.1-6.9.4-7,4.2,0,3.5.6,7.2-.2,10.6-1.4,4.9-6.8-.9-10.4.4-1.5.6-2.5,2.4-3.8,3.3-5.5,2.3-3.1,3.3-6.4,6.8-10.5,11.4-31,16.2-33,33.4-4.1,2.2-9.9.9-13.7,4-3.9,3.2-3.4,9.4-7.3,12.3-4.9,3.1-10.8,1.1-16.2,1.8-5.1,1.5-11.1,2.8-15.7,5.3-8.5,6.9-6.6,20.6-15.8,27-13.4,13-33,14.5-50.3,17.3-2.4.8-5.4,2.8-7.6.6-2.9-4.2-7.5-6.1-11-9.5-2.5-7.7-5.5-15.4-7.4-23.3-3.4-13.5,5.6-67.5-18.7-61.7-5.2-1-7.5,1.6-11.3,4.4-8.3,5.5-8.9,16.6-11.7,25.3-2.1,5-8.4,6.3-13.1,7.9-5.3,1.6-10.3,4-15.7,5.3-8,1.9-11.1,2.1-14.2,7.7-5,8.2-5.6,19.8-13.8,25.7-3.9,3.9-10,2.8-14.9,5-8.2,1.5-16.1,4.5-24.5,5.3-12.3,1.5-24.8.2-37-.2-5.7-.1-4.8-10.9-7.3-14.7-1.1-2.7-4.8-3.3-6.3-5.4-5.4-9.3-5.1-19.1-5.4-29.4-1.5-5.3-4.5-11.3-8.2-15.3-7.1-3.4-15.1-6.5-23.1-5.2-9.2,1.8-16.6-5.9-25.6-6.1-8-3-14.7-9.6-20.4-15.8-8.7-6.9-15.3-15.7-21.6-24.7-10.5-20.6-13.8-43.6-24-64.2-7.6-26-22.6-51.9-16.5-79.6,1.8-8.8,12-13.2,17.5-19.5,2.9-2.5,5.5-6.2,9.7-6.4,6.1-.7,12.2-2.1,18.3-2.9,3.4-.7,7.7.5,10.6-1.8,4-3.2,6.1-7.4,8.6-11.6,1.1-2,4.6-4.3,4.4-6.5-7.9-19.4-16.2-39.4-24.2-59-1.9-4.5-2.8-8,.9-12,4.2-7.1,10.2-14.1,11.5-22.4-.6-9-1.8-18-.7-27-1.6-11,.4-23,8.7-31,2.2-2.8,3.9-6.1,7.2-7.8,8.9-4.8,17.1-10.8,26.1-15.3,9.6-3.4,15.6-11.7,21.6-19.5,2-5,3.3-10.3,5.1-15.4,1.5-14.7-1-30,5.1-44.1,7.3-20.1,27.8-28.7,46.5-35,6.3.5,13.3,0,19.1,2.8,5.1,2.6,11.7,3,16.2,7,5.1,4,8.5,9.8,12.9,14.5,3.7,4,8,7.5,11.5,11.7,2.4,2,5.7-1.4,8.1-2.5l.1.2Z"/>
        <path class="cls-3" d="M312.6,707.3c-3.7-.5-6.2-2.9-8.6-5.4-3.2-2.6-6.7-5-9.9-7.6-10.1-7.5-20.7-14.5-29.8-23.4-2.7-2.7-6.3-4.2-8.9-6.9-2.4-3.4-5.9-5.4-9.3-7.6-3.3-3.3-6-7-10.1-9.3-4-4.1-7.2-8.4-11.7-12.2-3.6-5.5-9.1-9.1-12.3-14.9-1.4-2.7-3.3-6.6-2.2-9.5,1.9-3.7,8.6-4.3,12-2.6,2.9,2.3,6.7,2.4,9.8,4.2,2.6,1.6,4,4.7,6.8,6.1,2.7,1.5,4.9,2.7,6.9,5.2,2,3.5,5.7,4.8,8.5,7.4,1.5,1.5,2.5,3.4,4,4.9,3.8,2.6,7.3,5.2,10,9,2.2,1.8,5.4,2.6,7.5,4.7,1.7,1.4,2.8,3.7,4.9,4.6,3.3.8,5.3,3.6,7.4,6,3,3.8,6.8,6.6,8.5,11.3.6,1.5,1.2,2.9,2.3,4,4,4.6,6.9,9.9,11.7,13.7,1.2,1.4,1.9,3.2,3.2,4.4,1.9,1.6,4.6,2.3,6.2,4.3,2.4,6.4,5.2,4.5,9.8,7.7,3.8,4-3.3,5.9-6.3,6.8-4,.2-6.7-3.9-10.3-5l-.1.1Z"/>
        <path class="cls-3" d="M337.9,712.3c3.6.5,6.5,3.8,10.3,3.7,8.3-1,16.3,2.9,22.9,7.6,1.2.7,2.3,1.6,3.6,2,1.9.5,5.8.8,4.5,3.6-2.8,3.4-7.5,1.7-11.1,3-1.9.7-3.7,1.8-5.7,1.5-6.3-.9-12.5-2.9-18.6-4.8-5.4-2.1-2.3-3.7-4.6-7.1-2.7-2.1-6.4-1.4-9.4-3.3-7.3-3.8,5.1-6.4,8.1-6.2h0Z"/>
        <path class="cls-3" d="M476.1,453c-12.2-.9-14-.8-13.6,12.2-2.9,9.4-11.8,15.6-12.8,25.7-.5,4.9,3.7,9.1,5.4,13.6,4.2,10.3,5.9,21.4,9.4,31.9,1,5.4,4.1,5.3,8.6,6.7,7.9,2.4,16.3,1.5,24.5,1.7,19,.8,30.1,5.5,38.8-15.8,5.7-10.7,8.6-22.7,12.7-34,1-2.6,0-5.3-.7-7.9-2.4-9.7-5-19.8-7.5-29.7-.5-2.6-3.2-3-5.3-3.8-7.7-2.3-14.6-6.7-22.4-8.7-12.6-1.2-24.6,6.3-37,8l-.1.1Z"/>
        <path class="cls-3" d="M347.6,308.3c-5.5-1.9-9.2-6.7-13.4-10.4-6.4-2.3-11.9-6-17.1-10.4-10.6-8.7-24.3-15.9-38.2-15.2-6.4,2.7-15,1.7-20.3,6.2-5.7,8.8-12.1,17.1-20.1,23.9-9.5,12.5-14.3,28.1-17.3,43.2-.2,6.9,2.9,14.9-1.4,20.9-20.3,28.7-31.4,30.4-62.9,40.5-6.1,2.2-9.6,8-13.2,13-5,8.9-4.2,19.3-4.7,29.1-2.6,7.8-.7,16.2-2.5,24.1-2.2,2.5-6.5,2-9.6,3-7.4,3.7-9.5,13.4-13.9,19.9-6.6,8.1-14.6,16.6-17.1,27-1.1,26.2,2.2,22.4,11.4,44.6-.2,1.9-2.3,3.7-2.5,5.7-.8,4.4,0,9.1-1.6,13.3-18.2,32.5-10.1,71.1-3,105.7,1.5,4.6,1.3,9.7,4.5,13.6,2.6,6.1,2.6,13,5.5,19.1,2.6,15.6,2.5,31.6,4.3,47.2,6.5,29.6,8,59.9,9.2,90.1,1.4,6.5,4.7,12.2,4,19.1,6.6,13.1,6.8,3.2,17,4.6,10.5,1.3,21.1-2.5,31-5.4,34.7-2.3,68.4,7.9,103.1,7.4,28.3,1.8,58-2,81.1-19.5,7-6.4,6.4-18,14.2-23.8,2.4-2.3,6-1.4,8.8-2.8,6.4-2.6,11.6-6.9,17.4-10.7,5.7-4.8-3-19.4,11.4-28.7,6.2-4.9,7.9-2.2,13,1.7,11,7.1,9.9,25,10.1,36.8-4.6,19.3-7.4,19.5.4,39.6.5,9.5,8.3,11.6,15.3,16.2,27.6,11.7,83.8-5.2,80.3-41.9,1-2.5,1.2-6.8,4.2-7.4,6.9-.7,13.8-2.3,20.7-.4,25.6,7.4,52.8-1.6,78.4,5.4,7.4,2.1,15.2,1.3,22.8,1.8,8.1,2.7,16.2,5.2,24.8,4.9,44.8-11.3,21.5-59.4,44.9-87.7,4.9-25.8,34-31.6,28.1-59.8,2.3-6.7-3.2-13.3-.3-21,3.7-5.6,9-11.8,15.8-13.3,6.2-.5,11.4,4.7,17.3,6.1,15,1,26.8-13.7,36.7-23.2,10.9-8.7,20.9-21.6,18.2-36.3-1.6-12.2-15.1-15.7-21.1-24.9-3.4-9.9,1.2-20.2-.7-30.2,3.6-5.1,11.9-6,17.2-9.5,2.3-.9,3-3.3,3.5-5.5,2.5-5.6-.9-10.3.3-16.1,7.7-21.1,17.5-27,12.1-52.8-1.8-16.5-9.8-31.3-15.6-46.6-3.2-8-1.1-17.4-5.6-25-4-7.3-12.4-13-14.3-21.1,3.2-8.8-2.8-15.2,0-23.9,3.8-15.8,5.2-31.8,8.2-47.7,6.8-18,8.3-12,1.7-32.4-.5-12.6,3.3-25.6-.2-38.2-7.6-12.9-15-22.8-29.5-28.6-4.3-2.7-3.4-13.4-5.1-18.5-2.5-6.2-4.9-13.9-10.3-18-4.5-1.9-12.1,3.8-15.4-1.5-5.5-7.9-10.7-15.5-20.6-18.1-3.3-.5-6.6,1.4-9.8,1.6-4.4,0-8.8-.9-13.2-1.5-9.1.2-18-4.1-26.4-7.3-1.4-.8-2.6-1.7-2.6-3.3.9-4.9,1.2-10,1.4-14.9,1.2-6.6,9.1-10.1,9.4-17.1,1.7-14.5,7.8-29,5.7-43.7-.4-6.8-7.9-11.6-7.2-18.6.2-1.5,1.4-3.1.3-4-4.5-.5-8.6,2.3-11.2,5.8-5.3,4.8-11.4,8.9-16.6,13.9-12.5,12.4-18.8,31.7-34.5,40.9-7.6,5-14.8,10.5-22.9,14.6-5.4,4.6-10.5,9.7-17,12.9-3,2-7.4,1.4-11.1,1.8-7,2.3-14.1,5.1-21.5,6.2-12,5.1-24.9,7.2-37.8,9.2-12.9,6-27.4,2.3-39.8-2.9-30.1-5.2-32.9-28.7-48.9-26.2-2.4,1.5-4.2,4.4-7.6,4.1-8.6.8-16.9,2.6-25.6,2.8-12.6,4.3-23.6-2.3-33.7,10.5-6.7,14.4-10.8,1.8-21.2,8.3-4.6,2.9-6.2,8.6-10,12.4-5.8,6.3-12.5,12-17.4,19.1-5.2,11.3-1.7,25-2.6,37.2.9,5.9-2.7,11-2.5,16.6,0,14.3,11.2,27.1,25.8,27.2,5.2-.3,5.9,3,7.8,6.9,1.5,4,6.4,5.9,6.3,10.6,1.8,5.5-.7,9.3-4.2,13.3-2.1,4-5.5,7.6-10.5,6.5l-.3-.1Z"/>
        <path class="cls-3" d="M298.7,259.2c4.5.6,17.4,7.1,15.3-2.8-.6-2.2.8-3.6,1.3-5.7.4-4-.5-8.2-.2-12.2,1.6-6.5,8.7-10.9,9.4-17.8.9-10,.1-20.3.3-30.3,0-1.6.9-2.9,2-4,6.2-6.4,12.7-12.5,18.9-18.8,4.7-7.4,10.4-13.9,17.9-18.4,15.8.6,10.2-5,23.9-9.4,8.1-3.8,17.1-2.5,25.5-5.5,5.8-1.9,11.8-3.4,17.8-4.5,3.9-2.4,8.2-4.1,12.5-5.3,13.3,2.8,21.1,14.8,31.6,22.4,6.1,2.3,13,1.1,19.2,3.1,16.2,11.2,22.5,7.3,37.9-2.3,72.4-14.4,53.7,14.9,79.4-59.6,1.9-8,12-24.3,3.8-22-3.4,1.5-9.7,6-12.2,4.5-2.6-5.4-.5-13-1.4-19.1.4-3.4-1.9-6.5-1-9.9,4.8-12.7,1.9-15,19.4-14.1,7,2,14-1.1,21-1.3,2.4.6,3-1.7,4-3.5,12.1-7.8,24.8-15.4,36.8-23.3,41.3-17.1,67.8,6.4,53.8,48.8-1.3,14,.6,27.8,1.9,41.7-1.7,9-4.5,17.7-6.7,26.6-5.1,9.6-17.8,14.1-22.5,24-.2,4.7-2.5,12.2,1.3,15.8,8.9,2.6,17.4,7.2,26.9,8,5-.9,9.8-4.5,14.6-.6,9.5,2.8,12.3,13,19.2,18.9,17.5,1.5,15.1-4.4,24.7,14.6,3.4,7.3,1.1,16.3,3.7,23.8,20.8,9.2,23.5,6.9,37.3,28.3,1.6,7.7,6.2,16.4,3.7,24.1-9.4,15.1-6.6,14.6,2.8,27.8,1.1,2.3,1.7,4.7.4,7.1-10.4,17.2-10.3,37.6-15.8,56.5-4.4,14.9-6.6,26,4.3,38.6,10.3,9.8,8.4,21.1,10.9,33.9,7,13.6,18.1,27,16.2,43.3,3.5,17.2,2.8,34.5-9.6,48.4-4.2,5.8-3,13.3-2.8,19.8-5.1,13.5-27,10.6-23.2,23,1,9.8-3.9,21.2.4,30.2,8.9,6.9,18,13.2,21.7,24.4,2.2,5.7-1.6,13.5-4,18.5-12,13.8-30.5,47.6-51.2,45.5-13.3-8.2-18.2-21.3-31.2-2.5-3.4,3.1-2.7,8.2-2.1,12.4,2.3,16.5,2,34.7-7.6,49.1-3.4,3-9.8,3-11.9,7.3-1.4,5.2-.1,11.5-3.4,16-10.7,8.9-12.7,10.2-13.2,24.5,0,13.1-1.5,16.7,11.7,23.8,4.1,1.4,14.8-2.1,15.6,2.3-2.6,10.1-6.5,20-11.9,28.9-5.5,8.3-16.8,24.2-27.3,23.2-20.2.1-40.2,5.1-60.5,3.4-34,4.9-41,15.1-77.7,6.1-15.5.3-31.2,2.9-46.2,7.1-27.6,11.2-69.8,28.5-90.3-2.4-1.6-8.3-5.4-16.7-5.6-25.2,1-8.6-1.8-17.3-3-25.8-.4-3.7,2.3-9.5-2.2-11.7-4.6-1.1-12.3.9-14.5-4.8-1.4-1.5-.8-6.1-2.6-7.1-1.6,5.3-.5,12.8-5.1,17.3-2.5,2.4-3.8,6.3-7.2,7.8-3.7.9-7,3.2-10.7,4.2-6.7-.7-8.4,7.7-12.5,11.6-3.7,4.9,1.3,12.2-3.3,16.8-5.2,4.5-11.4,7.9-18,9.9-4.7,2.6-9.1,5.4-14.6,5.4-23.5,2.4-46.9,9.2-70.4,5-26.3-2.8-52.7.6-79.1-.7-7-1-13.1,3.3-18.9,6.6-19.8,10.4-31.9,21.5-56.5,15.9-21.5-3.3-71.4,6.1-70.1-26.3-2-2.6-2.2-5.7-1.9-8.9v-66.3c.3-3.3,4-5.4,6-7.9,9.9-9.4,18.4-20,24.2-32.4,9.6-22.9,18.7-49.6,13.7-74.4.3-19.3,2.2-38,.4-57.1-.9-7.1-6.5-12.4-10.3-18.2-10.9-20.5-8.1-44.5-8.9-67-1.3-18.4,8.2-34.6,15.8-50.9,12.5-17.4,33.3-25.3,51.3-34.4,6.7-18.8-2.3-38.9,4.9-57.4,13.5-19.8,40.8-11.7,57.7-26.3,7.9-8.9,15.6-17.9,25.5-24.6,1.5-7.8-7.7-15.4-2.1-24.4,6.1-13,11.5-26.7,19.1-39,6.9-8.6,15.4-15.9,22.4-24.3,5.5-7.4,13.4-12.9,21.9-16.4,6.5-.7,13.1,1.4,19.7.9l-.2-.3Z"/>
        <path class="cls-3" d="M465,455.3c-5.4,8-2.4,19.2-8.2,27.4-2.4,9.9,3.5,43.3,9.5,51.4,4.6,9.6,17.7,9.8,27,10.1,12.4,0,26,2.8,36.7-4.9,9.8-13.7,14.7-30.4,19.3-46.4-2.2-12.3-5.7-24.9-9.2-36.9-8.3-4.3-18.2-6.7-27.3-8.9-6.6-.5-13.3,1.8-20,2.2-9.2,1.6-20.3.2-27.9,6.1l.1-.1Z"/>
        <path class="cls-3" d="M741.4-12.7c1.9,6.6,5.1,12.6,7.4,19,1,6.8,3.5,13.4,4.3,20.2-.5,8.8-1.8,17.5-1.8,26.4-.8,4.4-3.8,8.2-4.3,12.6,1.7,9.1,7.5,18.2,5.2,27.6-1.9,7.4-1.9,15.2-2.4,22.8-.7,5.8-10.4,9.2-14.3,13.2-2.5,2.1-7.1,5.4-4.1,8.6,5,5.8,11.1,10.8,17.8,14.5,6.4,2.9,12.8,5.7,18.6,9.8,4.9,2.6,6.3,9.7,11.7,11.2,8.7-.8,14.4,6.6,18.7,13.1,3.3,4.4.9,11.5,3.5,16.7,1.3,4.4,2.5,10.1,7.9,10.7,7.2,1.2,14.6,1.4,21.9,2,11.4,2.2,23.6,4.5,34,9.6,9.7,4.9,11.8,30.5,12.9,40.8,0,4.9-6.1,5.9-8.8,8.9-5,6.2-8.1,14.6-15.1,18.9-7,2.9-1.1,7.8-4.4,13.2-2,6-5,11.6-7.1,17.6-.9,8.2-2.4,16.3-4,24.4-.5,6.4-2.8,12.4-3.5,18.8-.6,6.6-4,12.9-3.4,19.6.3,6.1,4.9,10.7,7.7,15.7,1.9,3.5,5.3,6,6.7,9.9,3.3,8.6-2.2,20.1,4.5,27.4,2.8,4.9,7.2,8.9,10.2,13.6,3,7.6,6.4,15.3,5.9,23.7-.3,2.1.6,4.4.8,6.3-1.2,3.8.1,8-.7,11.9-3.5,13.2-8.7,25.9-13.8,38.5-1.6,4.9-1.5,10.4-3.4,15.1-4,3.8-7.6,8.1-11.4,12.2-1.5,1.7-4.6,2-5.1,4.4-.1,3.6-3.6,6.1-4.6,9.5-2.3,7.6-1.4,15.6-3,23.3.6,5.1,11.3,11.4,15.1,15.4,2.2,2.6,3.2,6,5.1,8.8,2.8,4.6,3.5,4.4,2.6,8.1-2.1,11.5-6.5,17.5-16,24.1-1.8,1.3-2.8,3.2-3.7,5.2-2.7,5.2-4.8,10.6-7.4,15.8-3.7,5.5-8.5,10.4-13,15.3-5,4.6-13,6.3-19.3,3.4-4.9-1.4-10.1-3.9-13.2-8.1-.6-1-1.4-1.9-2.6-1.6-8.6,2.3-5.2,13.3-7.1,19.9-1.1,5.5-3.1,10.8-4.1,16.3-1.8,7.2-5.7,13.7-8.2,20.7-1.1,2.6-1,5.6-2.7,8-2.8,4.6-7.4,8.2-9.2,13.3-1.8,3.9.4,9.1-3.9,11.6-5.4,3.6-5.9,9.1-9.1,14.3-6,5.3-8.6,2.2-8.7,12.1-.3,2.5,1.3,4.1,3.4,4.9,4.5,1.6,8,5.1,12.7,5.5,6.7.6,14.7-3.3,20.5,1.2,10.8,7,21.3,14.7,28.1,25.9,1.9,2.2.5,5-.1,7.4-.9,6.8-6,10.9-10.5,15.5-9.9,11.9-23,20-36.3,27.7-6.9,3.1-14.6,5-22.1,6.4-12.7.1-24.8,4.6-37.1,7-11.1,1.3-22.4,2.4-33.5,2.1-4,0-8,1.2-12,1.6-11.8,2.1-23.6-1-35.4-1.8-7.3-.2-14.6-.2-21.9,0-9.8.6-19-3.8-28.7-4.8-8.8-.7-17.8-.7-26.6-.9-9.1,1.1-17.6,4.6-26.3,7.1-12.8,3.4-25.7,5.6-39,4.8-2.5,0-4.3-1.9-6.2-3.3-5.3-4.2-10.7-8.5-15.9-12.9-3.9-3.9-2-11.2-6.8-14.3-7.2-5.7-7.5-5.5-16.6-5.8-12.8-1.6-3.5-10-27.8-10.7-17.5-2.8,2.3,7-22.8,18.9-16.6,8.2-35.9,7.2-53.5,11.4-6.9,1.5-13.6,4.1-20.6,4.6-8.6-.1-17.2,0-25.7-.3-9.9-1.8-20-4.6-30.1-5-8.4,1.3-16.9,2.5-25.2,4.2-9.5,1.1-19.1-.5-28.7.3-10.6,2.8-18.2,11.7-28.3,15.6-5.6,4-10.9,8.3-18.1,9-9.8,1.5-20.2-.9-29.2-4.9-1.1-.5-2.4-.5-3.6,0-21.1,11.5-24.3,8.9-48.4,6.6-10.7-2-21.8-2.4-32.5-4.4-5-2.7-9.7-6-14.2-9.4-6.8-4.7-8.2-13.3-13.2-19.4,3.2,6.2,6.6,13.9,12.4,18.8"/>
        <path class="cls-3" d="M-9.1,807c2.8-11.4,6.7-22.7,14.2-31.9,13.3-24,30.8-45.4,44.1-69.3,5.4-13.4,7.8-27.7,11.4-41.6,1.2-3.2,2.5-6.3,3.4-9.6,0-5.4.7-10.9,1.4-16.3-1.2-5.8-6.8-10.2-9.2-15.6-2.4-5.2-3.9-10.8-5.5-16.2-4.9-35.4,5.4-70.7,19.6-102.8,14.9-35,24-21.4,51.5-35.3,3.1-3.6,3.9-9.2,5.2-13.8,0-5.9-1.9-11.8-2.4-17.7-.4-10.4-.1-21.5,3.6-31.3,9.7-6.4,21.3-10.3,32.9-11.2,1.1-.2,2.1-.6,3-1.2,5.4-3.2,10.1-7.4,15.3-11,8.5-7.5,15.4-16,22.6-24.6,4.6-3.5-.2-10,1-14.7,2.3-5.4,6-10.4,8.8-15.5,2.7-3.4.4-7.4.6-11.2.7-6.9,3.6-13.1,6.7-19.1,1.4-4,2.3-8.3,4.1-12.2,5.4-13,11.9-14.7,22.7-22.2,7.4-6.8,13.5-15,21.6-21,4.4-2.6,9.1-5.3,12.1-9.6,1.3-1.7,0-4.1-.2-5.7.9-7.2,2.5-14.5,2.2-21.8-.3-11.4-2.2-19.4,4.5-29.9,4.5-5.6,19.3-6.1,25.5-3.4,9.4,1,16.7-8.8,26.3-7.4,7.2-.7,10.3-9.8,17.2-11.8,5.9-4,12.1-7.4,18.5-10.5,4.9-4.4,10.4-8.1,16.7-10.4,13.8-4.2,27.8-8.1,42.2-9,5.6-3.1,11.4,0,17.2.6,3.6.3,7.7-.2,10.9,1.8,2.9,1.8,5.9,3.7,9.2,4.5,3.9.7,7.1,3.9,11.1,4.1,23.4.5,48.3-2.3,69.1-13.7,2.2-1,4.8-2,5.1-4.8.6-3.6,2.6-7.1,2.8-10.8-2.2-5.2-6.1-9.9-9.5-14.4-4.1-3.8-4.9-9.4-6.6-14.5-1.6-5.2-6.3-8.5-9.2-13-3.9-4.5-5.4-10.6-8.8-15.4-1.7-6,1.4-12.5.9-18.7.9-4,5.4-5.7,8.8-7,12.2-6.7,25.8-9.4,39.3-11.8,12.2-.8,22.2-8.6,33.6-11.9,12.9-4,27.3-3.5,39.3-9.9"/>
        <path class="cls-3" d="M530.7,539.4c8.8-14.3,14-30.5,18.6-46.5-1.9-11.9-5.9-23.7-8.5-35.6-1-3.6-5.8-3.3-8.7-4.8-6.1-2-12.5-4.2-18.6-6.1-5.3-.7-10.8,1.6-16.1,2.2-9.6,1.9-20.2,2.4-29.3,6.1-6.9,3.1-6.5,16.3-8.7,22.7-5.1,17.6-3.1,21,3.5,37.5,5.9,18.2,0,25.1,23.5,28.7,11.6-2.6,23.9,3.9,35-1.1,3.2-.4,6.7-.8,9.3-3v-.1Z"/>
        <path class="cls-3" d="M490.5,47.2c4.2,2.5,5,2,7.3-2.2.9-1.8.7-3.8,0-5.6-1.1-3-2.2-4.5-5.4-4-4.9.3-20.6,4.7-12.8,8.8,3.5,1.4,7.5,1.5,10.9,2.9v.1Z"/>
        <path class="cls-3" d="M446.1,41.9c1.3-5.1,8.6-10.4,13.8-8.4,3.3,1.3,15,5.1,14.4,9.1-1.4,4.6-14.2,11.7-18.9,9.8-2.1-1.6-2.7-4.6-4.5-6.5-1.4-1.5-4.1-2-4.8-4.1v.1Z"/>
        <path class="cls-3" d="M169.4,43.9c-.2,6.5,3,13.3,2,19.8-1.5,4.3-2.6,9-5,13-2.3,3.8-5.3,7.5-6.1,11.9,4.4,17.5-8.9,31.7-17.2,45.7-4,6.8-5.5,15.2-11.6,20.6-9.8,8.7-19,18.9-29.7,26.5-2,1.4-4.1,2.7-6.3,3.8-2.6.8-6.2.2-8.8-.8-1.9-1.6-4-4.3-3.2-6.9.8-2.4,3.5-3.2,3.2-6.1-1.9-12.2-14-20.2-18-31.2,1.1-8.2,3.5-17.2,5.6-25.3,2.4-7,6.7-13,10.1-19.4,2.9-9,4.5-18.6,12.3-24.7,5.5-6.1,11.7-11.7,17.2-17.7,3.3-5.3,5.6-11.4,10.1-15.8,11.9-16,15.1-10,30.6-2.9,5.1,3.4,18.9-.5,14.9,9.6l-.1-.1Z"/>
        <path class="cls-3" d="M220.8,4c-3.9,1-.8,2-2.1,4.5-4.8,7.9-18.2,15.3-4.3,21.4,7.4,4.3,30.2,3.8,32.8-5.9-1.2-8.8-17.5-20.9-26.4-20Z"/>
        <path class="cls-3" d="M542.1,507.2c1.4-4.4,3.8-8.8,5.4-13.2,1.4-10.6-3.8-21.2-5.7-31.6-.9-4.2-1.1-7.6-6.1-8.3-7.5-2.4-14.9-5.3-22.7-6.9-15,.9-30,5-44.7,8.3-5.3,1-8.9,27.2-11,33.3-1.5,3.8.6,7.3,2.1,10.8,2.6,5.7,4.4,11.9,6.2,17.9,2.8,18.2.5,19.1,19.1,25.9,1.9.6,3.7-.4,5.4-1.3,14.6-6.4,18.3,3.8,28.7-1.7,3.9-2.6,9.8.8,12.6-2.2,5.5-9.7,9.5-19.8,10.7-30.9v-.1Z"/>
        <path class="cls-2" d="M66.8-13.3c-2.8,4.2-5.6,8.4-8.4,12.5-1.4,1.7,0,3.4,0,5.2-.2,1.1-1.6,1.8-1.5,3.2,0,.7,0,1.4.2,2,3,10.3,10.6,19.6,15.7,28.9,9,15,10.6,12.9,2.8,33.8-2.4,6.4-3.3,13.4-7.6,18.9-7.8,10.2-15.2,20.7-19.7,32.8-6.6,11.8-8.7,24.7-10,38.1-2.8,17.4-2.7,17.2,2.6,34.1,2.1,5.5.9,7.6-.8,12.7-1.3,4.3-1.5,8.9-2.1,13.3-1.7,5.4,3.9,8.1,6.9,11.6,11.4,11.8,13,13.5,29.4,10.6,13-1.3,26.3-2.2,38.8-6.7,15.1-4.8,36.4-6.1,48.3-17.1,2.7-4.5-4.6-13.5,5-15,14.1-2.1,18.6-18.9,18.2-27-1.4-28.1-4.8-46.9,16.4-62s24-36.9,39.1-53c4.3-4.3,9-4.2,14.8-3.9,27.7,1.2,24.1-.2,46.7,15.4,11.1,3.3,15.9.4,25.3,10.5.7,2.3,2.1,7.6-1.5,8.1-8.3,2.7-17,2.9-25.6,3.3-10.6-.2-15.2-2.9-13.8,10.7.7,5.5-.5,6.2-4.6,9.9-2.4,2.6-5.1,3.9-8.5,4.2-4.1,1.1-8.1,2.5-12.1,3.8-2.3.9-4.1-.6-6-2-3.8-3.3-9.3-5.3-14.3-4.5-3.9,1.7,2,9.6.7,13.2-2.4,6.3-10.1,9.1-15.9,11.4-6.1,4-13.1.6-18.6,4.1-18.5,11.8-23.6,61.6-19.1,83s4.4,12.9,5.2,14.6c1.3,4.9,1.1,10.3,1.5,15.4-.5,5.8-5.5,10.2-7.8,15.3-1.9,8.6-4.1,17.1-7.7,25.2-4.3,7-7.4,14.6-10.6,22.1-14.6,20.1-33.9,36.4-46.8,57.8-8.6,10.2-10.3,16.8-8.5,29.9-4.4,9.9.8,17.8.7,27.9-1.7,18.4-7,15.2-20.3,23.2-5.7,4.8-10.9,10.5-15.7,16.2-4.1,5.4-4.7,13-5.8,19.5-14.7,41-35.9,75.8-24.3,121.2,2.1,11.2,2.3,18.1-3.1,28.8-3.3,6.5-10.6,8.8-16.5,12.3-3.1,2.1-4.2,6-6.6,8.8-3.9,3.4-8.1,6.4-11.4,10.5-9.2,10.9-15.4,23.8-22.1,36.3"/>
        <path class="cls-2" d="M260.9-12.8c5.8,4.5,11.1,10,17.2,14,10,.4,19.9,3.1,29.8,3.9,8.5.3,17.1-.4,25.6.3,11,1.7,22.1,5.7,33.3,5.8,16.3-.3,32.8,0,49.1-1.5,12.2-3.1,24.5-6.6,36.8-9.4,9.1-2.9,18.9-1.2,28-4.1,8.5-1.7,17-3.3,25.3-5.7,4.7-.2,8.6-1.2,12.9-3.3"/>
        <path class="cls-2" d="M543.8,496.5c6-8.2-2.4-28.3-4.1-38.1-.3-1.5-1.5-2.5-3-2.9-8.7-2.4-17.3-6.9-26.4-7.5-13.5,2.4-26.5,7.2-40.3,8.7-5.3-.2-5.6,9.5-6.3,13.5-1.4,9.2-.9,18.8.9,28,4.4,11,7.2,22.5,6.3,34.5-.7,4.2,13.4,10.7,16.6,8.9,2.7-1.2,5-3.1,8-3.5,5.1-1.5,10.1-1.2,15.3-.6,5.3-1.8,10.4-4.3,16.1-3.2,1.9,0,2.3-2.2,3-3.6,4.6-11.3,5.1-24.8,13.7-34.1l.2-.1Z"/>
        <path class="cls-1" d="M540.8,486.2c3.7-9,.3-18.8-2-27.8-1.2-2.7-4.9-2.5-7.2-3.7-4.6-1.5-9.1-3.1-13.6-4.5-9-3.5-18.3,1-26.7,4.4-20.8,8.9-22.7-4-22.2,14.2.4,3.8.7,7.5.2,11.2.2,2.7,1,5.5-.4,8.1-1.5,10.4-5.3,20.6-4.1,31.3,1.3,4.9,0,14,4.8,16.6,5.1,1.9,10.1,3.9,15.4,5.3,3.6.8,6.5-2.6,10-3,5.2-2.1,10.7-.5,15.9-1.8,3.2-1.8,6-4.4,9.7-5,4.3.3,5.3-18.2,7.7-22.3,2-8.8,8.3-15.5,12.5-23.1v.1Z"/>
        <path class="cls-3" d="M-12.2,458.2c2.4-6.3,4-13.1,8.1-18.6,5.5-7.3,8.3-16.2,12.9-24,1.9-2.8,5.2-4.6,7-7.4,2-4.2,3-9,6.6-12.3,3.5-4.1,8.1-7.1,11.8-10.9,4.2-7.4,8.8-14.5,13-21.9,1.6-3.1.3-6.9,1.2-10.2.7-3,1.9-5.9,2.8-8.9.9-16.1-6.7-22.8-18.5-31.8-14.6-13.5-30.3-25.8-46.1-38"/>
        <path class="cls-3" d="M802.4-12.5c6.3,3.7,14,5.9,19.6,10.5,2,3.6,3.7,7.6,6.9,10.4,3.8,4.2,9.2,7.4,11.6,12.7,4.2,10.6,7.4,21.9,11.1,32.8.5,1.6.4,3.1-.3,4.7-4,7.4-6,16.2-11.4,22.7-2.4,3.1-6.1,5.7-7.6,9.4-.9,3.5-.4,7.6-2.2,10.8-2,3.6-5.9,6.1-8.4,9.4-3.3,3.9-4,10,0,13.6,2.8,2.6,7.1,2.9,10,5,13.3,14.5,31,23.9,46.9,35.2,8.4,9.1,16.2,18.8,25.3,27.2,15.5,9.7,32.2,18.3,48.6,26.4,7.1,3,3.1,10,4.2,15.7,4.4,16.6,4.2,12.1-4.4,26.6-1.5,3.5-2.8,6.9-4.3,10.3-3.2,6.7-28.6,11.6-32.6,21-1.8,5.2,3.5,11.1,5.5,15.8,1.8,4.9,6.3,19.5,4.1,24.1-2.5,3.5-3.3,8.3-6.4,11.3-2.6,1-5.1,1.3-7.2,3.4-6.5,6.5-12.6,1-19.1,4.2-1.5,1-1.9,2.8-1.7,4.5.2,3.2,0,6.6.2,9.8,1.5,5.1,4.8,10.2,8.4,14.1,3,1.7,7.8.4,9.3,4.4,1.5,3.2,2.9,2.5,5.5.6,2.2-1.4,4.3-2.8,6.3-4.5,2-2.3,4.5-2.4,6.8-.7,2.9,2.2,11.6,3.5,10.5,8-1.3,5.7-.9,12.2-3.6,17.5-4.4,6.4-7.2,15.5-15.7,17.1-1.2,0-2.4-1.2-3.6-1.2-4,.7-7.3,3.5-11.4,4.1-9.9,2-25.8,9.5-21.2,22,3.7,7.4,4.6,7.8,3.7,16.5-.5,5.1,3.6,9.4,4,14.3-2.9,12.4-5.8,13.2-14.6,21.2-2,1.3-4.3,2.3-6.3,3.6-1.1.7-1.5,1.9-1.2,3.1,0,5.7,5.2,8.9,9.7,11.4,3.4,1.2,6.9,2.2,9.9,4,9.1,3.7,18.2,7.1,24.7,15,4,3.8,4.2,9.8,5.4,14.8,1.9,6.3,4.1,13.5-.7,19.2-1.1,1.9-3.1,2.7-5,4-2.4,1.5-4.2,3.7-6.8,4.7-9.1,2.8-17.2,7.9-26.6,10-4.9,2-10.7,1.8-15.1,4.8-1.5,1.6-8.8,10.7-7.7,12.6,2.7,3.9,6.8,7,10.2,10.2,1.6,2.2,2.4,5,3.3,7.5.6,2,2,4.1,1.2,6.2-1.4,3.2-3.7,6.1-5.2,9.3-1.3,5.1-6.1,7.5-9.6,11-3.2,2.9-2.2,7.8-3.7,11.5-3.8,8.4-7.5,16.9-8.7,26.1-1.1,18.3,2.9,38-5.5,55.1-2.5,5.6-3.9,11.6-6.2,17.2-7.9,11.7-17.4,22.5-25.2,34.4-4.1,8-9.5,15.4-13.3,23.5-1.3,5.8-3.8,11.7-4.1,17.7,2,6.8,6.8,12.4,9.6,18.8.8,2-.3,4-1,5.9-2.6,5.5-3.6,11.7-6.7,16.8-5.1,6.8-10.2,13.7-16.2,19.7-10.2,7.6-21.6,13.6-33.7,17.4-7.8,3.1-16.3,3.6-24.5,5-10.8,2.4-21.6,4.9-32.5,7.2-5.5,1.1-11.2.4-16.8.4-7.9.4-14.8,5.1-21.9,8.1-6.6,2.8-13.7,4.4-20.8,5.8-15.5,3.9-30.8,8.6-46.1,13.3-13.2,2.4-26.5,4.6-39.6,7.9-17,2.6-34.2-2.7-51-5-41.3-1.9-83.6,3.6-124.7-2.7-9.4-4.3-17.8-11-26.1-17-4.5-3.7-10.7-8.3-15.3-8.3-5.2-.6-13-.4-18.5-1.7-5.7,0-11.5,1.2-17.2,1-16.9-1.6-33.9-3.2-50.7-5.7-4.1-.9-8.4.1-12.5.8-14.8,2.4-30.4,5.1-45.5,7.6-3.8.5-7.9-.4-11.5-1.1-5.5-.9-11,1-16.6.6-9.2.9-18.2-1.8-27.3-1.7-53.9-.5-40.7,43.5-123.4-7.4"/>
        <path class="cls-3" d="M-12.1,399.3c6.1-5,12.4-10.3,18.4-15.3,1.7-1.4,3.9-2.6,4.6-4.9,1.2-6,4.2-11.4,6.4-17.1,0-6.6,1.6-14.2-1.7-20.2-5.1-6.1-9.5-12.7-13.2-19.9-3.7-5.7-9.3-9.5-14.9-13.2"/>
        <path class="cls-3" d="M469.8,488.1c3.6-7.1,6.6-14.8,5.7-22.9,0-1.4,0-3.1,1.4-3.8,7.7-3,15.1-6.8,23.1-8.7,9.7-3.5,19.6.9,29.1,3,11,.6,8.6,7.1,5,14.6-6.1,8.5-7.4,18.9-8.7,29.1-1.6,10.8-2.7,21.4-2.4,32.3,0,2.5-2.7,2-4.4,2.6-2.4.7-4.3,2.8-6.4,4.1-3,1.5-6.4-.6-9.5-.5-4.6,0-9.3.5-13.5,2.6-6.4.7-12.8-3.7-19.1-5.1-1.5-.4-2.6-1.5-3-3-5-14.3-4.8-31,2.8-44.3h-.1Z"/>
        <path class="cls-3" d="M510.2,495.1c1.6,4.2,9.2-.8,9.4,8.8.2,5.5,0,11,.1,16.5.3,2.3,2,5.2,1,7.4-.8,1-2.5.8-3.6,1.4-2.6,1-4.4,3.8-7.1,4.5-1.9.5-3.9-.2-5.7-.9-3.3-.9-7.4-1-10.7,0-5.9,2.5-13.1.5-18.4-2.6-6-3.8-5.8-18.4-5.8-25,1.1-11.3,7.4-21.1,8.7-32.5.3-3,2-5.6,4.9-6.7,3.6-1.6,7.5-4,11.5-3.5,4.9.5,9.5,4,12.6,7.6.6,3.2,2.6,7.2,1,10.4-.9,3-7.3,8-2.6,10.5,1.6,1.2,4,2.1,4.4,4.2l.3-.1Z"/>
        <path class="cls-3" d="M853.1-12.7c4.1,10.2,13.5,11.7,22.1,16.7,5.4,5.3,8.1,13,12.4,19.3,1.8,4.4-.4,9.6-.4,14.2-.4,7.2-1.1,14.5-1.3,21.7,0,3.8-2.4,6.8-4.2,10-6.9,11.4-14.9,22.4-18.1,35.6-13.6,46.6-8.6,25.1,23.6,56.2,10.4,10.9,21.2,21.9,32.4,32,14.3,8.5,29.1,16.6,43.4,25.2,6.8,2.4,7.1,9.2,8.7,15.3,1.1,4.4,3.3,8.6,4.9,12.8,2.1,5.6-3.9,9.4-6.5,13.5-3.5,4.6-5.5,10.7-10.1,14.4-6.4,4.3-12.6,9.2-19.3,13.2-3.6,2.4-13,4.1-13.8,8.8,1.2,7.5,7.9,13.6,9.4,21.1,1.8,7.5.8,15.6,3.4,22.8,4.1,6.6,8.5,13.1,12.6,19.7.8,1.4.9,2.9.8,4.4-1.4,12.9-2.6,25.9-6.1,38.4-.6,2.9-2.9,4.9-4.4,7.4-3.5,5.4-6.3,11.3-10.3,16.3-8.7,5.6-18.8,10.4-29.1,11.4-6.4-.5-12.7.4-18.7,2.8-1.1.8-.4,2-.2,3.2.5,6.9,7.2,10.9,9.6,17.1,4.7,16.7,11.1,12.6-.7,29.6-4.6,3.7-10.2,7.9-15.2,11-1.4.6-1.5,2.2-1.3,3.5.4,4.2,6.4,4.6,9.6,6,9.7,2.5,19.3,5.9,28.5,9.8,1.1.5,2,1.3,2.6,2.4,2,3.4,3.3,7.6,6.3,10.4,2.3,2.5,2.7,6.1,3.5,9.3,1.4,6.5,3.3,12.9,4.7,19.4,1.2,4.1-2,8.4-3.4,11.9-10.7,13.9-37.7,13.1-51.2,23.2-1.2,1.8-7.1,7.4-5.6,9.8,3.9,4.5,2.4,11,2.7,16.5.8,4,2,4.7-.6,8.6-1.7,3.1-1.4,6.8-2.6,10-10.4,14.4-16.2,21.6-19,42-3.3,14.5-3.8,29.4-3.2,44.2.8,8.6-3.2,12-7.8,18.2-13.5,18.6-29,36.5-40.6,56.2-2.1,5-7.4,8.8-7.6,14.3.5,5,1.7,10.1,1.3,15.1-.3,2.1.7,3.9,1.6,5.7,9.3,19.5,10.8,15.9-.1,36.4-6.4,9.5-14.6,18.9-22.5,27-10,6.3-21.7,12.4-32.8,16.9-10.6,4.1-22.3,4.1-33.1,7.7-16.9,6-35.1,5.6-52.3,10.2-7.9,2.8-15.3,6.7-23.6,8.5-6.3,3.6-13.4,4.3-20.3,5.9-11,3.5-22.2,7.3-33.3,10.7-11.7,2.2-23.8,3.9-35.5,5.9-20.4,4.1-40-7.3-60.2-9.2-31.8,1.5-63.8,1.8-95.6,1.4-8.4-.2-17.6.6-25.5-2.7-6-3.9-10.8-9.4-16.7-13.6-5.8-2.7-12.1-4.9-17.8-7.8-9.7-1.9-20.2-1.1-29.9.8-4.2,1.9-5.2,9.2-10.2,9.3-17-.6-34.1,0-51.1,1.2-19.7,0-39.4,2-58.3,7.5-1.4.4-2.6,0-3.7-.9-2.4-2.1-5.4-4.2-6.9-7.2-2.1-3.4-2.1-8.7-6.5-10-21.8-2.2-45.6-7-66.4,2.6-7,2.4-13.5,6.7-20.9,8-9.8-1.4-19.9-2.8-29.6-5-19.2-5.5-37.8-12.9-55.3-22.5"/>
        <path class="cls-2" d="M-12.2,922.7c25.5,14.8,56.2,18.4,84.5,25.9,6.8-.6,13.6-2.2,20.4-3.2,6.4-1.3,12.2-4.8,18.7-6.3,6.9-.7,14.3-2.4,21.1-1.2,1.2.6,1.5,2.3,2.4,3.3,4.9,2.9,5.5,8.7,8.3,13.2,5.4,6,11.8,11.2,16.7,17.7,10,13.8,15.1,14.4,31.5,13,8-.9,16-3,23.9-4.6,11.5-2.3,23.2.9,34.7,1.6,18.5,2.1,37.3,2.8,56,3.7,3.7,0,7.6,1.2,10.9-.5,11.8-7.6,23.5-15.6,35.2-23.5,3.2-1.9,4.7-7.9,8.3-2.9,6.5,5.7,18,2.2,26.2,2.7,17.7-.5,36.4-4.8,53.8-.1,9.6,1.3,20.3.6,29.3,0,14.4-1.2,12.4-3.7,26.1,0,11.6,2.8,23.6,8.5,36.4,10.5,18.4-1.9,37.1-3.2,55.1-7.8,16.9-3.3,34.7-4,49.5-13.4,10.6-5.1,22.6-6.5,34-9.3,11.9-3.9,23.3-9.1,35.5-11.9,12.3-4.4,10.6,3.9,17.5,9.9,3.4,2.4,7,4.4,10.2,6.9,1.5,1.1,2.5,2.8,4.2,3.6,2.2.8,4.7-.2,7.1.2,10.8,1.4,21.2,6.1,32.2,5.7,9.2-.3,12.4,1.1,18.6-7.2,8.1-8.8,17.2-17.2,24.8-26.5,5.7-10.7,17.6-15.7,25.9-24.2,15.7-11.6,13-18.5-3.5-25.9-5.9-3-15.6-2.8-20-7.5-2.5-4-4.4-9-7.6-12.5-2.3-2.5-6.5-2-8.9-3.8-7.1-10.3-13.5-22.2-13.4-35,1.8-5.5,6.6-9.8,9.5-14.8,14.4-21.2,31-41.3,45.8-62.2.7-1.5.6-3.3.6-5.1.3-7.4-.9-15,1-22.2,3-9.8,6.3-19.7,7.8-29.8,1.3-6.7,1-13.3,6.5-18,5.4-5.6,11.4-11.1,16-17.4,1.4-1.8,1.4-4.1,2.6-6,16.9-16.6-3.2-30.9,16.6-40,10.6-13.8,15.9-5.7,28.8-16.3,3-1.8,6.7-2.9,8-6.4,1.3-3.3,4.4-6.4,3.9-10.2-2.2-10.2-5.2-20.2-5.7-30.6-1.2-6.3-4.7-12.1-7.7-17.7-3.6-3.2-7.7-6.4-12-8.5-7.7-2.8-17.8,2.3-24.4-3.7-1.8-2.7,1.8-5.8,4-7.2,14-11.4,24.7-22.3,9.8-39.1-3.5-4.3-24.2-15.1-9.8-18.4,4-.6,8.2-.3,12.1-1.1,12.4-1.5,21.4-10,29.7-18.6,4.2-4.7,9.9-8.5,12.4-14.5,1.6-3.1,2.8-6.1,4.5-9.3,4.8-7,2.9-15.6,2.4-23.5,0-2.9,1.2-6,.4-8.9-.8-2.7-2.1-5.4-2.7-8.2-1-13.6-4.9-27-8.8-40-.5-1.3-.7-2.7-.2-4.1,2.5-5,4.3-10.2,5.7-15.5,7.3-8.6,15.6-16.6,21.5-26.3,2.7-5.8,10.5-4.8,14.2-9.5,3.3-3.7,7.4-7.1,10.3-11.1,2.5-8.2,2.3-17.3,3.6-25.8.5-3.9-1.9-7.3-3.1-10.9-3.4-6.5-4.5-15.7-9.9-20.7-14.7-8.6-29.2-18.3-44-26.8-16.7-7.8-35.1-11.2-52-18.7-2.3-1.2-3.6-3.6-5.5-5.2-1.9-1.8-4.6-2.9-5.6-5.3-2.3-7.8.4-16.3,1.2-24.1.4-7.6,2.3-14.9,6.7-21.2,4.9-9.4,11-18.9,15.5-28.5.5-3-1.1-6-1.2-9,.2-7.3,1.2-14.7.4-22.1.5-10.7-8.7-18.3-13-27.4-2.6-5.4-4.5-11.2-6.8-16.7"/>
        <path class="cls-3" d="M-12.2,941.3c4.7,1.4,5.7,6.1,7.9,9.8,2.1,3.7,6.7,4.8,9.7,7.5,3,3,5.4,6.7,8.8,9.2,5.4,4,12.5,5.5,18.3,8.9,4.6,3.8,6.9,12,13.7,12.5,8-.5,17,1.5,24.6-1.7,5.1-3.2,9.2-8.3,15.2-10.1,4.6-1.7,7.7-5.9,12.2-7.6,5.1-2,7.6,4.1,11.2,6.3,1.8,1,4.3.3,6.4.8,2,.4,3.8,1.6,5.6,2.7,17.6,12,33.2,26.9,52.3,36.4,38.3,2.8,77,3.9,115.5,5.5,9.9.4,19.9,1.5,29.7-.1,14.9-3.1,30.1-6.2,44.4-11,7.6-4.4,11.7-12.3,17.1-18.9,6.7-5.5,14.1-10.6,20.9-16.5,12.9-10.4,23.6-15.7,39.5-9.8,11.2.7,22.6-1.4,33.7-2.4,4.2-.5,8.6-.9,12.8.2,48.8,16,31.5,14.6,82.4,10.1,19-2.3,38.3-5.5,56.7-10.4,8.3-3,17.1-7.6,25.9-8.3,7.6-.2,12.3,7.5,17.9,11.4,11.4,1.3,22.5,5.1,33.7,7.7,4.3.3,6.1,5.5,9.9,6.3,12.1-.7,24.1-2.4,36,.7,6.4,1.8,10.9,7.6,16,11.7,2.4,2.6,2.6,7,6.1,8.6,10.7,4,21.5,8,32.2,12,1.6.6,3.1.3,4.5-.5,6.4-3,14.2-4,19.3-9.2,6.7-5.9,1.9-10.4.9-17.3.6-12.9,17.6-13.8,24.4-21.9,1.7-2.8,2.5-6.4,3.5-9.5,3.1-7.1,4.1-20.3,10.1-24.7,12.7-8.1,21.5-20.4,31.3-31.5,3.4-5.2,11.1-9.5,11.5-15.7-1.4-11.9-3.9-28.8-19.2-28.9-12.9-.6-17.6-13.1-35-13.4-16.2-7.1-32.6-14.1-49.3-19.8-4.8-2-16.6-3.9-11.4-11.4,6.9-9.4,14.3-19.2,21.5-28.7,10.4-13.9,21.1-28.2,31.6-42.1.9-1.2,1.5-2.7,1.5-4.2.3-6.3-.6-12.8.4-19,4.6-9,11.7-16.6,17.2-25.2,4.3-8,5.2-17.6,9.2-25.5,12.4-14.8,26.6-30.1,30.9-49.5,1.2-9.1.4-12.2,7.7-19.3,12.2-4.5,11.1-3.4,21.2-13.1,2.7-4.2,5.5-8.2,8.6-12.2,1.7-2,1.5-4.5.6-6.9-3.9-10.8-5.3-15.9-2.2-27.3,1.1-7.5-2.2-15.2-4.2-22.3-1-3.4-5.1-3.7-7.9-5.1-3.2-1.7-3.4-7.8-4-11.2,2.6-7.6,4.7-15.6,4.4-23.8-1-10-11.1-20.1-6.1-29.8,2.1-6.8,8.9-10.5,13.9-15.1,2.2-1.6,2.5-4.9,4.9-6.2,9.2-3,19.9-1.5,28.8-5.1,3.6-2.7,6.4-6.5,10.4-8.4,5.7-1.7,10.7-4.3,14.6-8.8,3.6-3.3,8-7.2,7.7-12.2-1.4-9.1-8.2-15.7-12.4-23.7-2.1-3.3-5.2-4.3-8.4-6.8-5.7-4.7-11.9-8.3-18.1-12.1-5.8-5.6,5.4-13.7,8.6-18.3,5.1-6,8.5-13.4,13.7-19.3,4.1-5.2,7.9-10.3,12.9-14.6,3.3-5,6.4-10.5,9.6-15.7,4.9-8.5,11.1-16.8,14.3-26.3,2.1-9.9,4.1-20.2,5.8-30.2-.5-17-8-32.2-16.7-46.4-2.4-4.7-3.4-10-7-14-4.7-7.1-12.8-10.7-19.7-15.3-6.2-3.8-12.2-8.4-19.3-10.6-15.7-6.9-31.3-14-47.8-18.9-5.7-2.5-15.2-.4-15.9-8.9-3.4-14.9,1.8-30.4,9.6-43.2,1.5-2.7.3-6,0-8.9-1.2-10.1-2.6-20.4-3.9-30.5-6.1-12.3-12.7-24.7-18.7-37.1"/>
        <path class="cls-3" d="M987.4,684.8c-3.8-10.6-10.1-21.6-6.5-33.1,1.2-8.4,2.5-16.9,3.8-25.2.7-3.6,2.6-6.9,4.1-10.2,4.9-9.4,8.1-20,15-28.3,3.8-4.2,13-9.2,18-6.3,2.7,1.5,5.1,4.6,7.3,6.5,1.7,1.8,4.2,3.2,4.8,5.7,1.1,5.6,2.6,11.3,2.6,17-.6,7.5,2.3,16.2-4.2,20.8-13.7,8.9-3.5,30.4-17.4,39-4.1,2-9.3,3.9-10.1,9-1.3,3.9-.3,16.6-5.5,18.4-5.3.9-9-9.7-11.8-13.3h-.1Z"/>
        <path class="cls-3" d="M80,1035.8c-6.7-3.7-11.6-10.2-18.8-12.8-12.4-4.4-23.3-11.7-34.5-18.4-7.8-4.2-13.8-10.6-19.5-17.2-6.1-5.7-12.9-10.9-19.4-16.1"/>
        <path class="cls-3" d="M899.1-12.7c6.4,18.8,26.5,26.4,40.2,39.1,3.1,2.8,2.6,7.6,3.8,11.3,1.6,8.2,4.3,16.6,5.1,24.9.2,4.4-1.8,8.9-.6,13.2,2.5,6.7,5,13.5,7.6,20.1,1,4.1,4.5,5.1,8.1,6.6,11,5.6,23,9.1,33.7,14.9,16.3,12.6,29.7,20.5,39.5,39.6"/>
        <path class="cls-3" d="M1036.4,265.5c-4,10.5-9.2,20.9-12.5,31.6-3,15.3-5.9,30.7-10.3,45.5,4.3,15.4,8.8,31.5,10.2,47.4-9.2,17.8-23.6,32.3-36.9,47-2.8,4.5-4.8,9.5-7.3,14.1-1.5,3.4-5.9,2.6-8.9,3.6-2.4.5-4.2,2.3-6.1,3.8-1.9,1.7-4.6,3.1-5,5.9-1.9,9.7-3.8,19.4-5.9,29.1-1.3,6.2-5.4,11.9-5.5,18.3.2,4,4.3,8.7.9,12-1.5,1.7-4.6,2.2-4.5,4.5.2,6.2-2.4,12.3-3.3,18.4-.2,6.9,6.1,12.7,8.8,18.9,1.8,5.3-3.3,12.7-4.5,18.2-.8,4.2-9.1,4.2-7.9,8.8,1.2,1.1,4,1.1,4.4,3.3,1.6,7.8-2,15.6-5.6,22.4-7.3,19.7-24.4,33.5-34.3,51.8-.8,1.8.2,3.8.7,5.5,1.5,5.6,5.3,11.6,2.6,17.4-6.1,6-14.6,9.8-20.8,15.7-2.6,2.8-4.1,6.4-7.3,8.6-7.6,6.4-10.7,17.6-20.1,22-5.4,3.4-11.2,6.3-16.8,9.5-7.7,7.2-13,16.9-19.6,24.9-1.5,1.9.9,3.5,2.1,4.8,4.3,4.2,9.3,8.3,13,12.7,4.1,6.6,13.1,7.3,19.6,10.6,4.2,1.6,8.3,4,12.9,4.1,10.8-.2,21.6,2,32.4,2.2,10.7-.3,21.4-.8,32-1.8,2.8-.5,4.9,1.7,7.4,2.8,6.2,3.4,10.5,9.6,14.7,15.1,1.1,5.4-.3,11.1.5,16.6,1.6,3.1,5.4,4.3,7.8,6.6,1,.7,1.1,2.1.6,3.1-1.8,5.2-4.9,10.2-5.9,15.7-.9,7.4.1,15.4-2.5,22.5-3.2,6.5-5.7,13.3-9.2,19.6-9.6,11.2-22.2,18.8-34.8,26-3.5,2.2-6.9,4.5-10.2,7-4.2,3.2-9.3,5.9-10,11.7-3.4,11.7-11.1,22.1-15.1,33.6-2.1,11.4-6,17.2-16.5,23.1-15.5,7.9-31.9,14.7-46.8,23.6-4.7.8-6-2.3-10,2.3"/>
        <path class="cls-3" d="M726.7,1035.8c-9.8-5-21.2-6.1-31.7-9.4-14.3-2.2-29.3-.4-43.7-1-12,1.4-23.3,6.7-35.4,7.7"/>
        <path class="cls-3" d="M539.4,1033.3c-22.1,0-37.4-17.9-60.2-6.6-11.6,4.4-24.6,5.6-37,4.4-12-.5-24.4-.8-36.3-.2-5.5,1.6-10.8,3.9-16.5,4.9"/>
        <path class="cls-3" d="M43.4,1035.8c-15.5-10.7-47.5-26.2-55.6-42.3"/>
        <path class="cls-3" d="M939-12.7c13.7,13.1,29.9,23.1,43.5,36.4,2.8,3.4.9,8.5,2.1,12.5,2.5,8.5,5.2,17.1,8.4,25.3,11.1,18.7,24.7,36,43.4,47.7"/>
        <path class="cls-3" d="M1037,396.7c-8.2,14.1-18.3,27.1-26.4,41.1-4.2,12.1-10.6,23.4-16.1,34.9-.9,3.6.6,7.6,1.1,11.3,1.4,4.9,5.9,2.1,7.1,8.9,3.4,8.8,6.8,17.5,13.3,24.5,2.1,2.6,4.1,5.2,5.4,8.2,2.9,9.5,4.9,11.2,15.2,11.1"/>
        <path class="cls-3" d="M1036.4,676.3c-3.8,8.3-10.4,15.9-12.5,24.8,0,11-1.9,21.9-3.1,32.8-.6,7.7-.2,15.4-.3,23.1.2,1.9-.9,5.1,1.3,6.2,3.4,1.7,14.9.8,14.6,5.4v15.4c.1,2.4-1.3,2.9-3.3,3.5-11.5,1.9-15,11.1-24.1,16-6.7,2.6-13.4,5.5-20.1,8-4.8.8-1.9,4.9-1.4,8,2.4,9.6,5.3,18.9,7.5,28.6-.2,5.9-3.2,11.4-3.6,17.3.3,7.5,3.6,15.1,2.7,22.6-3.1,11.2-7.1,22.3-9.6,33.6-.4,2-1.9,3.4-3.3,4.6-3.6,3-5.4,8.1-9.6,10.5-15.6,9.1-30.3,19.2-46.5,27-3.3,1.4-2.4,5.7-3.1,8.7-1,7.7-1.9,15.5-3,23.2-.2,1.7-.9,3.2-2,4.5-11.2,12.9-23.6,25-36.9,35.8"/>
        <path class="cls-3" d="M927.4,1035.8c8-12.5,16.9-24.7,23.9-37.8,2.1-4.7-.3-12.5,4.2-15.7,6.9-3.7,14.3-6.7,20.9-10.8,12-11.3,19.5-26.6,31.9-37.5,3.9-4.1,9.8-7.2,12-12.5,2.5-11.1,4.5-22.4,7.5-33.3,1.4-5.2-1.8-10.5-1-15.8,2.8-8,6.2-15.9,9.2-23.9"/>
        <path class="cls-3" d="M1036.7,516.3c-2.2-.2-2.9-2.1-3.7-3.9-5-12.7-10.2-25.6-15.1-38.3,4.1-12.7,6.7-26.4,11.7-38.6,2.4-3.9,5.1-7.6,7.5-11.6"/>
        <path class="cls-3" d="M-12.2,1014.6c8.8,7.7,18.3,14.7,28.1,21.1"/>
        <path class="cls-3" d="M980-12.8h0c6.1,5.2,12.5,10.5,18.3,16,3.9,3.9,7.1,8.6,11.5,11.9,14.9,9.3,17.6,17.4,26.3,31.7"/>
        <path class="cls-3" d="M958.1,1035.8c4.9-7.2,10-14.6,15-21.7,5.8-9.3,4.3-7.7,14.9-7.8,1.2,0,2.3-.4,2.3-1.7.1-5.5,0-11.7,2.9-16.5,14.7-15.4,27.1-33.1,43.2-47"/>
        <path class="cls-3" d="M1036.4,5.3c-7.5-5.1-14.1-11-19.9-18"/>
      </g>
    </g>
  </g>
</svg>